<svg width="120" height="120" viewBox="0 0 120 120" fill="none" xmlns="http://www.w3.org/2000/svg">
<circle cx="60" cy="60" r="60" fill="#000B19"/>
<path d="M90.7606 52.5535C86.8178 53.0464 83.1213 51.3214 80.9035 47.625C78.932 44.175 79.1785 39.7393 81.6428 36.7821C77.9463 33.3321 73.5106 30.8678 68.8285 29.3893C67.3499 32.8393 63.8999 35.3035 59.7106 35.3035C55.5213 35.3035 52.0713 32.8393 50.5928 29.1428C45.6642 30.6214 41.2285 33.0857 37.7785 36.5357C39.9963 39.7393 40.4892 44.175 38.2713 47.625C36.2999 51.075 32.357 53.0464 28.4142 52.5535C27.9213 55.0178 27.4285 57.4821 27.4285 59.9464C27.4285 62.4107 27.6749 65.1214 28.4142 67.3393C32.357 66.8464 36.0535 68.5714 38.2713 72.2678C40.2428 75.7178 39.9963 80.1535 37.532 83.1107C41.2285 86.5607 45.6642 89.025 50.3463 90.5035C51.8249 87.0535 55.2749 84.3428 59.4642 84.3428C63.6535 84.3428 67.1035 86.8071 68.582 90.5035C73.5106 89.025 77.9463 86.5607 81.3963 83.1107C79.1785 80.1535 78.6856 75.7178 80.657 72.2678C82.6285 68.8178 86.5713 66.8464 90.5142 67.3393C91.007 64.875 91.4999 62.4107 91.4999 59.9464C91.7463 57.4821 91.4999 54.7714 90.7606 52.5535Z" stroke="#73A2FF" stroke-width="3" stroke-miterlimit="10" stroke-linecap="round" stroke-linejoin="round"/>
<path d="M52.3891 56.6562L52.9651 57.6882L46.5811 61.2402L52.9651 64.8642L52.3891 65.8962L45.4531 61.8642V60.6162L52.3891 56.6562ZM61.4654 49.9842L62.5934 50.2002L57.9614 71.6082L56.8334 71.3922L61.4654 49.9842ZM67.0282 56.6562L73.9642 60.6162V61.8642L67.0282 65.8962L66.4522 64.8642L72.8362 61.2402L66.4522 57.6882L67.0282 56.6562Z" fill="white"/>
</svg>
