<svg width="19" height="18" viewBox="0 0 19 18" fill="none" xmlns="http://www.w3.org/2000/svg">
<path fill-rule="evenodd" clip-rule="evenodd" d="M9.00842 0C4.03368 0 0 4.13036 0 9.22902C0 13.3071 2.58188 16.7625 6.16112 17.9839C6.61154 18.0683 6.77642 17.783 6.77642 17.5379C6.77642 17.317 6.76838 16.7384 6.76436 15.967C4.25889 16.5254 3.72804 14.7295 3.72804 14.7295C3.31783 13.6647 2.72666 13.3795 2.72666 13.3795C1.91027 12.8049 2.78698 12.817 2.78698 12.817C3.69184 12.8812 4.16639 13.7692 4.16639 13.7692C4.97072 15.1795 6.27372 14.7737 6.78849 14.5366C6.86892 13.942 7.10217 13.5321 7.35956 13.3031C5.36081 13.0701 3.25751 12.2786 3.25751 8.74285C3.25751 7.73437 3.60739 6.91071 4.18248 6.26785C4.08998 6.03482 3.78032 5.09464 4.27096 3.825C4.27096 3.825 5.02702 3.57589 6.74827 4.76919C7.46814 4.56428 8.23627 4.46384 9.0044 4.45982C9.7685 4.46384 10.5407 4.56428 11.2605 4.76919C12.9818 3.57589 13.7338 3.825 13.7338 3.825C14.2245 5.09464 13.9148 6.03482 13.8223 6.26785C14.3974 6.91473 14.7473 7.73839 14.7473 8.74285C14.7473 12.2866 12.6399 13.0661 10.6332 13.2951C10.9549 13.5804 11.2444 14.1429 11.2444 15.0027C11.2444 16.2362 11.2324 17.2326 11.2324 17.5339C11.2324 17.779 11.3932 18.0683 11.8517 17.9759C15.439 16.7585 18.0168 13.3031 18.0168 9.22902C18.0168 4.13036 13.9832 0 9.00842 0Z" fill="white"/>
</svg>
