<svg width="12" height="18" viewBox="0 0 12 18" fill="none" xmlns="http://www.w3.org/2000/svg">
<path d="M6.4286 5.99998H3.00001C1.34315 5.99998 0 4.65684 0 2.99999C0 1.34314 1.34315 0 3.00001 0H6.4286V5.99998Z" fill="#E64A19"/>
<path d="M6.00003 12H3.00001C1.34315 12 0 10.6568 0 8.99999C0 7.34314 1.34315 6 3.00001 6H6.00003V12Z" fill="#7C4DFF"/>
<path d="M3.00001 18C1.34315 18 0 16.6568 0 15C0 13.3431 1.34315 12 3.00001 12H6.00003V15C6.00003 16.6568 4.65688 18 3.00001 18Z" fill="#66BB6A"/>
<path d="M9.00001 5.99998H6V0H9.00001C10.6569 0 12 1.34314 12 2.99999C12 4.65684 10.6569 5.99998 9.00001 5.99998Z" fill="#FF7043"/>
<path d="M9.00001 12C10.6569 12 12 10.6568 12 8.99999C12 7.34314 10.6569 6 9.00001 6C7.34315 6 6 7.34314 6 8.99999C6 10.6568 7.34315 12 9.00001 12Z" fill="#29B6F6"/>
</svg>
