<svg width="17" height="18" viewBox="0 0 17 18" fill="none" xmlns="http://www.w3.org/2000/svg">
<path d="M16.1053 0H0L1.42105 16.1053L8.05263 18L14.6842 16.1053L16.1053 0Z" fill="#E65100"/>
<path d="M8.05249 1.42114V16.5317L13.3578 15.0159L14.542 1.42114H8.05249Z" fill="#FF6D00"/>
<path d="M8.05249 9.47376V7.57902H12.1262L11.7946 13.0264L8.05249 14.258V12.2685L9.9946 11.6053L10.1367 9.47376H8.05249ZM12.2683 5.68429L12.4104 3.78955H8.05249V5.68429H12.2683Z" fill="white"/>
<path d="M8.05271 12.2685V14.258L4.31061 13.0264L4.12113 10.4211H6.01587L6.11061 11.6053L8.05271 12.2685ZM5.73166 5.68429H8.05271V3.78955H3.74219L4.07377 9.47376H8.05271V7.57902H5.87377L5.73166 5.68429Z" fill="#EEEEEE"/>
</svg>
