<svg width="18" height="18" viewBox="0 0 18 18" fill="none" xmlns="http://www.w3.org/2000/svg">
<path d="M5.4 5.4L5.88641 5.0487C5.73403 4.83773 5.46302 4.74904 5.2154 4.8291C4.96777 4.90918 4.8 5.13976 4.8 5.4H5.4ZM9 16.8C4.69218 16.8 1.2 13.3079 1.2 9H0C0 13.9705 4.02943 18 9 18V16.8ZM16.8 9C16.8 13.3079 13.3079 16.8 9 16.8V18C13.9705 18 18 13.9705 18 9H16.8ZM9 1.2C13.3079 1.2 16.8 4.69218 16.8 9H18C18 4.02943 13.9705 0 9 0V1.2ZM9 0C4.02943 0 0 4.02943 0 9H1.2C1.2 4.69218 4.69218 1.2 9 1.2V0ZM6 14.4V5.4H4.8V14.4H6ZM4.91359 5.7513L12.7136 16.5512L13.6864 15.8488L5.88641 5.0487L4.91359 5.7513ZM12 4.8V12H13.2V4.8H12Z" fill="white"/>
</svg>
