<svg width="32" height="18" viewBox="0 0 32 18" fill="none" xmlns="http://www.w3.org/2000/svg">
<mask id="mask0_2259_199" style="mask-type:luminance" maskUnits="userSpaceOnUse" x="0" y="0" width="32" height="18">
<path d="M0.639893 8.99989C0.639893 13.4623 7.51695 17.0798 15.9999 17.0798C24.4828 17.0798 31.3599 13.4623 31.3599 8.99989C31.3599 4.53756 24.4828 0.919944 15.9999 0.919944C7.51695 0.919944 0.639893 4.53756 0.639893 8.99989Z" fill="white"/>
</mask>
<g mask="url(#mask0_2259_199)">
<path d="M0.639893 8.99989C0.639893 13.4623 7.51695 17.0798 15.9999 17.0798C24.4828 17.0798 31.3599 13.4623 31.3599 8.99989C31.3599 4.53756 24.4828 0.919944 15.9999 0.919944C7.51695 0.919944 0.639893 4.53756 0.639893 8.99989Z" fill="url(#paint0_radial_2259_199)"/>
</g>
<mask id="mask1_2259_199" style="mask-type:luminance" maskUnits="userSpaceOnUse" x="0" y="0" width="32" height="18">
<path d="M0 -1.3411e-07H32V18H0V-1.3411e-07Z" fill="white"/>
</mask>
<g mask="url(#mask1_2259_199)">
<path d="M15.9997 16.48C24.1514 16.48 30.7597 13.131 30.7597 8.99992C30.7597 4.86887 24.1514 1.51987 15.9997 1.51987C7.84813 1.51987 1.23975 4.86887 1.23975 8.99992C1.23975 13.131 7.84813 16.48 15.9997 16.48Z" fill="#777BB3"/>
</g>
<mask id="mask2_2259_199" style="mask-type:luminance" maskUnits="userSpaceOnUse" x="0" y="0" width="32" height="18">
<path d="M0 -1.3411e-07H32V18H0V-1.3411e-07Z" fill="white"/>
</mask>
<g mask="url(#mask2_2259_199)">
<path d="M8.98531 9.92752C9.65558 9.92752 10.156 9.80391 10.4726 9.56024C10.7858 9.31907 11.0021 8.90124 11.1155 8.31841C11.2213 7.77363 11.181 7.39324 10.9959 7.18796C10.8066 6.9783 10.3974 6.87196 9.77958 6.87196H8.70842L8.11458 9.92752H8.98531ZM5.48181 13.6914C5.43208 13.6914 5.38486 13.6692 5.35325 13.6307C5.32158 13.5924 5.30875 13.5418 5.31825 13.493L6.89203 5.39568C6.90725 5.31741 6.97586 5.26085 7.05564 5.26085H10.4475C11.5135 5.26085 12.307 5.5503 12.8057 6.12124C13.3071 6.69518 13.4619 7.49746 13.2659 8.50574C13.1861 8.91652 13.0489 9.29802 12.858 9.63957C12.667 9.98152 12.4145 10.2979 12.1074 10.5801C11.7399 10.9241 11.3239 11.1736 10.8721 11.3204C10.4275 11.4652 9.85647 11.5386 9.17497 11.5386H7.80153L7.40931 13.5565C7.39408 13.6349 7.32553 13.6914 7.24575 13.6914H5.48181Z" fill="black"/>
<path d="M8.84598 7.03822H9.77976C10.5254 7.03822 10.7844 7.20183 10.8724 7.29933C11.0184 7.46122 11.0459 7.80255 10.9521 8.28639C10.8466 8.82805 10.6512 9.21211 10.3711 9.42778C10.0843 9.64855 9.61809 9.76044 8.98548 9.76044H8.31692L8.84598 7.03822ZM10.4477 5.09378H7.05576C6.8962 5.09378 6.75904 5.20689 6.72859 5.3635L5.15481 13.4608C5.13581 13.5585 5.16148 13.6596 5.22476 13.7364C5.28809 13.8132 5.38242 13.8577 5.48198 13.8577H7.24587C7.40548 13.8577 7.54265 13.7446 7.57309 13.5879L7.93909 11.7049H9.17515C9.87415 11.7049 10.4626 11.6287 10.924 11.4784C11.3985 11.3242 11.835 11.0628 12.2214 10.7015C12.541 10.4075 12.8042 10.0775 13.0036 9.72055C13.2031 9.3635 13.3465 8.96533 13.4296 8.53711C13.636 7.47578 13.4684 6.62589 12.9314 6.01122C12.3996 5.40244 11.5639 5.09378 10.4477 5.09378ZM7.91254 10.0938H8.98548C9.69665 10.0938 10.2264 9.95983 10.5744 9.69189C10.9225 9.42389 11.1573 8.97661 11.2793 8.34983C11.396 7.74805 11.3429 7.32339 11.1198 7.076C10.8965 6.82861 10.4499 6.70489 9.77976 6.70489H8.5712L7.91254 10.0938ZM10.4477 5.42711C11.4681 5.42711 12.2125 5.69489 12.6804 6.2305C13.1482 6.76611 13.2891 7.51372 13.1024 8.47355C13.0256 8.86894 12.8956 9.23044 12.7127 9.55794C12.5295 9.88567 12.2904 10.1853 11.9948 10.4571C11.6426 10.7867 11.2513 11.0216 10.8208 11.1614C10.3902 11.3017 9.84181 11.3716 9.17515 11.3716H7.66426L7.24587 13.5243H5.48198L7.05576 5.42711H10.4477Z" fill="white"/>
<path d="M17.3101 11.5383C17.2603 11.5383 17.2132 11.5161 17.1815 11.4777C17.1498 11.4393 17.137 11.3888 17.1465 11.3399L17.8427 7.75716C17.9089 7.41644 17.8925 7.17189 17.7967 7.06855C17.738 7.00539 17.5618 6.89944 17.0408 6.89944H15.7795L14.9043 11.4034C14.889 11.4818 14.8204 11.5383 14.7407 11.5383H12.9907C12.9409 11.5383 12.8937 11.5161 12.862 11.4777C12.8304 11.4393 12.8175 11.3887 12.827 11.3399L14.4008 3.24261C14.416 3.16433 14.4847 3.10777 14.5644 3.10777H16.3144C16.3642 3.10777 16.4114 3.13 16.443 3.16839C16.4747 3.20683 16.4875 3.25733 16.478 3.30622L16.0983 5.26055H17.455C18.4887 5.26055 19.1895 5.44277 19.5978 5.81766C20.0139 6.20011 20.1437 6.81161 19.9837 7.63539L19.2515 11.4034C19.2363 11.4818 19.1677 11.5383 19.0879 11.5383H17.3101Z" fill="black"/>
<path d="M16.3146 2.94119H14.5646C14.405 2.94119 14.2678 3.0543 14.2374 3.21091L12.6636 11.3082C12.6446 11.4059 12.6703 11.507 12.7336 11.5838C12.7969 11.6606 12.8913 11.7051 12.9908 11.7051H14.7408C14.9004 11.7051 15.0376 11.592 15.068 11.4354L15.9171 7.06619H17.0409C17.5611 7.06619 17.6703 7.1773 17.6747 7.18208C17.7062 7.21602 17.7477 7.37324 17.6792 7.72547L16.983 11.3082C16.964 11.4059 16.9897 11.507 17.053 11.5838C17.1164 11.6606 17.2107 11.7051 17.3103 11.7051H19.088C19.2476 11.7051 19.3848 11.592 19.4153 11.4354L20.1474 7.6673C20.3193 6.7828 20.1723 6.1193 19.7107 5.69508C19.2703 5.29058 18.5325 5.09397 17.4552 5.09397H16.3005L16.6418 3.33813C16.6608 3.24041 16.6352 3.1393 16.5718 3.06252C16.5085 2.98569 16.4142 2.94119 16.3146 2.94119ZM16.3146 3.27452L15.8962 5.4273H17.4552C18.4362 5.4273 19.1128 5.59852 19.4852 5.94052C19.8575 6.28274 19.9691 6.83724 19.8203 7.60374L19.088 11.3717H17.3103L18.0064 7.78908C18.0857 7.38152 18.0565 7.10352 17.919 6.9553C17.7814 6.80708 17.4887 6.73286 17.0409 6.73286H15.6423L14.7408 11.3717H12.9908L14.5646 3.27452H16.3146Z" fill="white"/>
<path d="M22.7529 9.92752C23.4232 9.92752 23.9235 9.80391 24.2402 9.56024C24.5534 9.31913 24.7697 8.90129 24.8832 8.31841C24.9889 7.77363 24.9486 7.39324 24.7634 7.18796C24.5742 6.9783 24.1649 6.87196 23.5472 6.87196H22.476L21.8822 9.92752H22.7529ZM19.2494 13.6914C19.1997 13.6914 19.1525 13.6692 19.1209 13.6307C19.0892 13.5924 19.0763 13.5418 19.0858 13.493L20.6596 5.39568C20.6749 5.31741 20.7434 5.26085 20.8233 5.26085H24.2151C25.2812 5.26085 26.0745 5.5503 26.5733 6.12124C27.0747 6.69513 27.2295 7.49741 27.0335 8.50574C26.9536 8.91652 26.8164 9.29802 26.6256 9.63957C26.4345 9.98152 26.182 10.2979 25.875 10.5801C25.5074 10.9241 25.0914 11.1736 24.6397 11.3204C24.195 11.4652 23.624 11.5386 22.9425 11.5386H21.569L21.177 13.5565C21.1617 13.6349 21.0932 13.6914 21.0133 13.6914H19.2494Z" fill="black"/>
<path d="M22.6133 7.03822H23.547C24.2926 7.03822 24.5516 7.20183 24.6396 7.29933C24.7857 7.46122 24.8133 7.80255 24.7194 8.28633C24.6139 8.82805 24.4184 9.21211 24.1384 9.42778C23.8516 9.64855 23.3854 9.76044 22.7528 9.76044H22.0843L22.6133 7.03822ZM24.215 5.09378H20.8231C20.6635 5.09378 20.5264 5.20689 20.4959 5.3635L18.9221 13.4608C18.9031 13.5585 18.9288 13.6596 18.9921 13.7364C19.0554 13.8132 19.1498 13.8577 19.2493 13.8577H21.0132C21.1728 13.8577 21.31 13.7446 21.3404 13.5879L21.7064 11.7049H22.9424C23.6414 11.7049 24.2299 11.6287 24.6913 11.4784C25.1658 11.3242 25.6024 11.0628 25.9888 10.7014C26.3084 10.4074 26.5715 10.0775 26.7709 9.72055C26.9704 9.3635 27.1138 8.96533 27.1969 8.53711C27.4033 7.47572 27.2356 6.62583 26.6986 6.01117C26.1669 5.40244 25.3313 5.09378 24.215 5.09378ZM21.6799 10.0938H22.7528C23.4639 10.0938 23.9936 9.95983 24.3417 9.69189C24.6899 9.42389 24.9246 8.97661 25.0466 8.34983C25.1634 7.74805 25.1102 7.32339 24.8871 7.076C24.6638 6.82861 24.2171 6.70489 23.547 6.70489H22.3385L21.6799 10.0938ZM24.215 5.42711C25.2354 5.42711 25.9798 5.69489 26.4476 6.2305C26.9155 6.76611 27.0564 7.51372 26.8697 8.47355C26.7929 8.86894 26.6629 9.23044 26.48 9.55794C26.2968 9.88567 26.0576 10.1853 25.7621 10.4571C25.4099 10.7867 25.0186 11.0216 24.588 11.1614C24.1575 11.3017 23.6091 11.3716 22.9424 11.3716H21.4315L21.0132 13.5243H19.2493L20.8231 5.42711H24.215Z" fill="white"/>
</g>
<defs>
<radialGradient id="paint0_radial_2259_199" cx="0" cy="0" r="1" gradientUnits="userSpaceOnUse" gradientTransform="translate(9.86211 3.7606) scale(20.1699 20.1699)">
<stop stop-color="#AEB2D5"/>
<stop offset="0.3" stop-color="#AEB2D5"/>
<stop offset="0.75" stop-color="#484C89"/>
<stop offset="1" stop-color="#484C89"/>
</radialGradient>
</defs>
</svg>
