<svg width="16" height="18" viewBox="0 0 16 18" fill="none" xmlns="http://www.w3.org/2000/svg">
<path d="M15.1993 13.8005L8.84314 0.547408C8.5157 -0.135431 7.56516 -0.191728 7.15921 0.447835L0.110993 11.5571C-0.0410472 11.7964 -0.0364516 12.1032 0.122099 12.3384L3.67263 17.5996C3.89284 17.9259 4.29841 18.0734 4.67717 17.9646L14.6122 15.1084C15.1702 14.9479 15.4502 14.3241 15.1993 13.8005ZM13.7954 14.277L5.43967 16.6165C5.24626 16.6709 5.06435 16.4997 5.10648 16.3033L8.06877 2.47912C8.122 2.23019 8.46055 2.18998 8.57085 2.41899L14.0339 13.763C14.1289 13.9713 14.0159 14.2153 13.7954 14.277Z" fill="#4DB6AC"/>
</svg>
