<svg width="21" height="18" viewBox="0 0 21 18" fill="none" xmlns="http://www.w3.org/2000/svg">
<path d="M10.1182 10.7876C11.1165 10.7876 11.9258 9.97828 11.9258 8.97997C11.9258 7.98166 11.1165 7.17236 10.1182 7.17236C9.11984 7.17236 8.31055 7.98166 8.31055 8.97997C8.31055 9.97828 9.11984 10.7876 10.1182 10.7876Z" fill="#00D8FF"/>
<path d="M10.1183 13.1209C7.5797 13.1209 5.36161 12.822 3.70163 12.2531C2.62499 11.8858 1.71038 11.3961 1.05864 10.8379C0.367283 10.2474 0 9.60286 0 8.97992C0 7.78445 1.31069 6.61419 3.51079 5.85082C5.31119 5.22428 7.65892 4.875 10.1147 4.875C12.5272 4.875 14.8425 5.21348 16.6321 5.83282C17.68 6.1929 18.5622 6.661 19.1887 7.17952C19.8693 7.74845 20.2293 8.37139 20.2293 8.97992C20.2293 10.2222 18.7638 11.4789 16.4017 12.2603C14.7309 12.8148 12.4984 13.1209 10.1183 13.1209ZM10.1183 5.73919C7.78855 5.73919 5.48403 6.07767 3.79885 6.6646C1.7752 7.37036 0.867795 8.33538 0.867795 8.97992C0.867795 9.64967 1.84361 10.7047 3.9825 11.4357C5.55245 11.9722 7.67693 12.2567 10.1183 12.2567C12.4084 12.2567 14.5437 11.9686 16.1316 11.4393C18.3533 10.7011 19.3688 9.64607 19.3688 8.97992C19.3688 8.63785 19.1095 8.23456 18.6378 7.84207C18.0941 7.38836 17.3019 6.97427 16.3549 6.6466C14.6517 6.06327 12.4372 5.73919 10.1183 5.73919Z" fill="#00D8FF"/>
<path d="M6.01694 17.9892C5.64965 17.9892 5.32558 17.91 5.05192 17.7515C4.01849 17.1538 3.65841 15.4326 4.0941 13.1461C4.45058 11.2701 5.32198 9.06639 6.54986 6.93831C7.75613 4.84984 9.20365 3.01343 10.6332 1.77115C11.4686 1.04379 12.3148 0.510867 13.0781 0.230004C13.9099 -0.0760651 14.6301 -0.0760651 15.1558 0.226403C16.2324 0.845742 16.5889 2.74697 16.0848 5.18112C15.7283 6.90951 14.8785 8.99438 13.6903 11.0576C12.4228 13.2541 11.0545 15.0257 9.73297 16.1816C8.87598 16.9306 7.99378 17.4779 7.1872 17.7623C6.76591 17.9136 6.36982 17.9892 6.01694 17.9892ZM6.92074 7.15436L7.29522 7.37041C6.13216 9.38686 5.27157 11.551 4.94029 13.3081C4.5406 15.4146 4.92589 16.6821 5.48042 17.0026C5.61725 17.0818 5.79729 17.125 6.01694 17.125C6.7335 17.125 7.86055 16.6713 9.16404 15.5334C10.4135 14.4424 11.7206 12.7428 12.9413 10.6291C14.0864 8.6451 14.9001 6.65025 15.2386 5.01188C15.7103 2.71816 15.3034 1.31385 14.7237 0.978972C14.4284 0.809734 13.9495 0.831339 13.3734 1.04379C12.7072 1.28864 11.9547 1.76755 11.1985 2.4265C9.841 3.60756 8.45469 5.36476 7.29522 7.37401L6.92074 7.15436Z" fill="#00D8FF"/>
<path d="M14.2197 17.9999C13.2403 17.9999 11.998 17.4094 10.7017 16.2931C9.25421 15.0473 7.78148 13.1928 6.55001 11.0648C5.34013 8.97629 4.47594 6.805 4.11226 4.94338C3.89981 3.85594 3.8602 2.85851 3.99703 2.05553C4.14827 1.18054 4.50475 0.557597 5.03407 0.251528C6.10711 -0.371412 7.93272 0.269532 9.79073 1.9223C11.1086 3.09257 12.4913 4.87137 13.6832 6.93103C14.9543 9.12752 15.8077 11.198 16.1462 12.9192C16.3658 14.0354 16.4018 15.0725 16.247 15.9151C16.0813 16.8117 15.7069 17.449 15.1667 17.7623C14.8967 17.9207 14.5762 17.9999 14.2197 17.9999ZM7.29897 10.6327C8.46564 12.6491 9.91316 14.4747 11.2671 15.6378C12.891 17.0349 14.1801 17.3374 14.7382 17.0133C15.318 16.6784 15.7429 15.3065 15.3036 13.0884C14.9795 11.4609 14.1621 9.4804 12.9378 7.36673C11.7892 5.38268 10.4677 3.6795 9.21821 2.57045C7.46821 1.0149 6.04949 0.665621 5.46976 1.0005C5.1745 1.16973 4.95485 1.59823 4.85042 2.20317C4.7316 2.90172 4.76761 3.79472 4.96205 4.77775C5.30773 6.54574 6.13591 8.62341 7.29897 10.6327Z" fill="#00D8FF"/>
</svg>
