<svg width="19" height="18" viewBox="0 0 19 18" fill="none" xmlns="http://www.w3.org/2000/svg">
<path d="M8.99133 0C6.0134 0 3.59082 3.27182 3.59082 7.29297C3.59082 9.46849 4.30279 11.4194 5.42609 12.7547C5.40449 12.8506 5.39099 12.9491 5.39099 13.0513C5.39099 13.797 5.9954 14.4014 6.74112 14.4014C7.48684 14.4014 8.09124 13.797 8.09124 13.0513C8.09124 12.3056 7.48684 11.7012 6.74112 11.7012C6.59935 11.7012 6.46569 11.7291 6.33743 11.7696C5.4837 10.68 4.94095 9.07965 4.94095 7.29297C4.94095 4.0162 6.75777 1.35013 8.99133 1.35013C10.7181 1.35013 12.1916 2.94644 12.7735 5.18361C13.2784 5.33933 13.7802 5.53555 14.2721 5.77227C13.7523 2.47885 11.5831 0 8.99133 0Z" fill="#7E57C2"/>
<path d="M14.6203 7.23837C12.844 6.16187 10.8517 5.68932 9.13793 5.90669C8.89041 5.60021 8.51597 5.40039 8.09158 5.40039C7.34586 5.40039 6.74146 6.0048 6.74146 6.75052C6.74146 7.49625 7.34586 8.10066 8.09158 8.10066C8.66404 8.10066 9.15053 7.74287 9.34675 7.24017C10.75 7.06961 12.4124 7.47915 13.9205 8.39364C16.8022 10.1403 18.2724 13.1502 17.1977 15.1043C16.8256 15.7811 16.1689 16.2618 15.2995 16.4949C14.2707 16.7699 13.0461 16.6722 11.822 16.2573C11.4444 16.6047 11.0349 16.9314 10.5956 17.233C11.7441 17.7357 12.934 17.9998 14.047 17.9998C14.605 17.9998 15.1442 17.9337 15.6487 17.7987C16.8823 17.4688 17.8274 16.7618 18.3809 15.7546C19.7999 13.1754 18.1127 9.35493 14.6203 7.23837Z" fill="#7E57C2"/>
<path d="M14.392 11.2476C14.392 10.5041 13.7876 9.90108 13.0419 9.90108C12.2962 9.90108 11.6918 10.5041 11.6918 11.2476C11.6918 11.5487 11.7944 11.8241 11.9618 12.0482C11.3862 13.3093 10.2768 14.5536 8.78358 15.4587C7.04417 16.5136 5.09998 16.8997 3.58334 16.4947C2.71386 16.2616 2.05725 15.7809 1.68506 15.104C0.919088 13.7116 1.45059 11.7845 2.85967 10.159C2.71431 9.64411 2.60675 9.10585 2.54194 8.55005C0.260226 10.7089 -0.65741 13.6459 0.502349 15.7548C1.0559 16.762 2.00099 17.469 3.23456 17.7989C3.73905 17.9339 4.27775 18.0001 4.83626 18.0001C6.3421 18.0001 7.98971 17.5194 9.4834 16.6139C11.2098 15.5676 12.491 14.1041 13.1778 12.5806C13.8587 12.5118 14.392 11.9447 14.392 11.2476Z" fill="#7E57C2"/>
</svg>
