<svg width="18" height="18" viewBox="0 0 18 18" fill="none" xmlns="http://www.w3.org/2000/svg">
<path fill-rule="evenodd" clip-rule="evenodd" d="M9 0C13.9708 0 18 4.02921 18 9C18 13.9703 13.9708 18 9 18C4.02966 18 0 13.9708 0 9C0.000450947 4.02921 4.02966 0 9 0Z" fill="#F06292"/>
<path fill-rule="evenodd" clip-rule="evenodd" d="M14.6454 3.85216C14.2377 2.25355 11.5875 1.7282 9.07935 2.61927C7.58671 3.14958 5.97052 3.98203 4.80843 5.06881C3.42673 6.36123 3.20666 7.48589 3.29731 7.95578C3.61748 9.61391 5.8898 10.698 6.82371 11.5025V11.5074C6.54818 11.6432 4.53245 12.6632 4.06076 13.7063C3.56291 14.8066 4.14013 15.5962 4.52208 15.7026C5.70581 16.0318 6.92021 15.4397 7.57318 14.4661C8.20316 13.5263 8.15085 12.3133 7.87712 11.7095C8.25456 11.6098 8.69514 11.5652 9.25431 11.6305C10.8331 11.815 11.1429 12.8008 11.0834 13.2134C11.0243 13.626 10.6928 13.8528 10.5824 13.9214C10.4714 13.9899 10.438 14.0138 10.4471 14.0643C10.4606 14.1383 10.5116 14.1356 10.6063 14.1198C10.7361 14.0977 11.4351 13.7843 11.4653 13.0226C11.5032 12.0558 10.5769 10.9744 8.9364 11.0024C8.26088 11.0141 7.83609 11.0781 7.52899 11.1927C7.50644 11.167 7.48299 11.1413 7.45955 11.1156C6.44537 10.0333 4.57033 9.26803 4.6497 7.81328C4.67856 7.28432 4.86254 5.89179 8.25231 4.20255C11.0292 2.81859 13.2524 3.19964 13.6366 4.04336C14.1854 5.24919 12.4484 7.48995 9.56457 7.81328C8.46561 7.93639 7.88704 7.51069 7.74319 7.35196C7.59167 7.18511 7.56913 7.17744 7.51276 7.20901C7.42076 7.25997 7.47894 7.40743 7.51276 7.49536C7.59889 7.71948 7.95243 8.11676 8.55444 8.31473C9.08431 8.4888 10.3745 8.58395 11.9347 7.98058C13.6817 7.30416 15.0463 5.42371 14.6454 3.85216ZM7.21152 11.9981C7.3423 12.4824 7.32787 12.9342 7.19304 13.3432C7.17815 13.3888 7.16147 13.4334 7.14343 13.4781C7.12539 13.5223 7.106 13.5665 7.08526 13.6098C6.98109 13.8262 6.84085 14.0287 6.66949 14.2158C6.14639 14.7863 5.41585 15.0018 5.1029 14.8201C4.76469 14.6239 4.93424 13.8199 5.54032 13.1786C6.19238 12.4891 7.1308 12.0459 7.1308 12.0459L7.12945 12.0432C7.15651 12.0283 7.18402 12.0134 7.21152 11.9981Z" fill="white"/>
</svg>
