<svg width="30" height="18" viewBox="0 0 30 18" fill="none" xmlns="http://www.w3.org/2000/svg">
<path d="M15.0036 0C11.0027 0 8.50207 1.99986 7.50182 5.99958C9.00219 3.99972 10.7526 3.25017 12.7531 3.74966C13.8946 4.03473 14.7105 4.86306 15.6138 5.77953C17.0842 7.27177 18.7864 8.99969 22.5055 8.99969C26.5064 8.99969 29.0071 6.99983 30.0073 2.99948C28.5069 4.99934 26.7565 5.74952 24.756 5.25003C23.6151 4.96496 22.7993 4.13663 21.8959 3.22016C20.425 1.72729 18.7221 0 15.0036 0ZM7.50182 8.99969C3.50085 8.99969 1.00024 10.9995 0 14.9999C1.50036 13 3.25079 12.2499 5.25128 12.75C6.39218 13.0357 7.208 13.8634 8.11135 14.7792C9.58233 16.2721 11.2852 18 15.0036 18C19.0046 18 21.5052 16.0001 22.5055 11.9998C21.0051 13.9997 19.2547 14.7498 17.2542 14.2497C16.1127 13.9646 15.2968 13.1363 14.3935 12.2205C12.9231 10.7276 11.2209 8.99969 7.50182 8.99969Z" fill="#00ACC1"/>
</svg>
