<svg width="18" height="18" viewBox="0 0 18 18" fill="none" xmlns="http://www.w3.org/2000/svg">
<path d="M17.6187 2.92022L9.31486 17.769C9.14323 18.0754 8.70286 18.0775 8.52873 17.7723L0.0604104 2.92147C-0.129216 2.5891 0.155014 2.1864 0.531756 2.2538L8.84477 3.73984C8.89793 3.74947 8.95193 3.74905 9.00509 3.73943L17.144 2.25589C17.5195 2.18724 17.8049 2.58701 17.6187 2.92022Z" fill="url(#paint0_linear_2260_235)"/>
<path d="M12.8946 0.00432726L6.8018 1.19819C6.70176 1.21786 6.62767 1.30284 6.62139 1.40456L6.24674 7.73429C6.23795 7.88331 6.37483 7.99926 6.5205 7.96536L8.21668 7.57396C8.37533 7.53754 8.51891 7.67694 8.48626 7.83685L7.98226 10.3045C7.94836 10.4707 8.10408 10.6126 8.26649 10.5632L9.31425 10.2451C9.47667 10.1957 9.63281 10.338 9.59848 10.5046L8.7977 14.3809C8.74747 14.6233 9.07021 14.7555 9.20458 14.5475L9.29458 14.4085L14.2592 4.50056C14.3425 4.3348 14.1989 4.14559 14.0168 4.18075L12.2708 4.51773C12.1067 4.54954 11.9674 4.39675 12.0134 4.23601L13.1528 0.285211C13.1989 0.125304 13.0591 -0.0279053 12.8946 0.00432726Z" fill="url(#paint1_linear_2260_235)"/>
<defs>
<linearGradient id="paint0_linear_2260_235" x1="4.41387" y1="-1.63504" x2="14.7492" y2="12.4003" gradientUnits="userSpaceOnUse">
<stop stop-color="#41D1FF"/>
<stop offset="1" stop-color="#9231BE"/>
</linearGradient>
<linearGradient id="paint1_linear_2260_235" x1="9.5156" y1="0.936142" x2="14.3836" y2="34.3299" gradientUnits="userSpaceOnUse">
<stop stop-color="#FED100"/>
<stop offset="1" stop-color="#E36001"/>
</linearGradient>
</defs>
</svg>
