<svg width="49" height="34" viewBox="0 0 49 34" fill="none" xmlns="http://www.w3.org/2000/svg">
<path d="M47.4211 30.5999H29.5263V31.4499H18.7895V30.5999H0.894737C0.399947 30.5999 0 30.9798 0 31.4499C0 31.9199 0.391895 32.3823 0.874158 32.4843L6.30521 33.6318C7.26974 33.835 8.85342 33.9999 9.8421 33.9999H38.4737C39.4615 33.9999 41.0443 33.835 42.0088 33.631L47.4416 32.4835C47.9248 32.3823 48.3158 31.9199 48.3158 31.4499C48.3158 30.9798 47.9158 30.5999 47.4211 30.5999ZM47.2484 31.6539L41.8155 32.8014C40.9199 32.9909 39.389 33.1499 38.4737 33.1499H9.8421C8.92679 33.1499 7.39589 32.9901 6.49937 32.8014L1.06832 31.6539C0.994052 31.6394 0.894737 31.5204 0.894737 31.4499H17.8947V32.2999H18.7895H29.5263H30.4211V31.4499H47.4211C47.4211 31.5204 47.3199 31.6394 47.2484 31.6539Z" fill="white"/>
<path d="M42.9473 1.69971H5.36837C4.87358 1.69971 4.47363 2.07966 4.47363 2.54971V13.5997V28.0497H43.8421V13.5997V2.54971C43.8421 2.07966 43.4421 1.69971 42.9473 1.69971ZM42.9473 27.1997H5.36837V13.5997V2.54971H42.2136H42.9473V13.5997V27.1997Z" fill="white"/>
<path d="M45.6314 2.55C45.6314 1.1475 44.4236 0 42.9472 0H5.36829C3.89198 0 2.68408 1.1475 2.68408 2.55V29.75H45.6314V2.55ZM44.7367 28.9H3.57882V2.55C3.57882 1.6116 4.3805 0.85 5.36829 0.85H42.9472C43.935 0.85 44.7367 1.6116 44.7367 2.55V28.9Z" fill="white"/>
<path d="M9.84221 24.6501H8.05273V25.5001H9.84221V24.6501Z" fill="white"/>
<path d="M9.84221 22.0999H8.05273V22.9499H9.84221V22.0999Z" fill="white"/>
<path d="M9.84221 19.55H8.05273V20.4H9.84221V19.55Z" fill="white"/>
<path d="M9.84221 17H8.05273V17.85H9.84221V17Z" fill="white"/>
<path d="M9.84221 14.4497H8.05273V15.2997H9.84221V14.4497Z" fill="white"/>
<path d="M9.84221 11.9001H8.05273V12.7501H9.84221V11.9001Z" fill="white"/>
<path d="M9.84221 9.34985H8.05273V10.1999H9.84221V9.34985Z" fill="white"/>
<path d="M9.84221 6.80005H8.05273V7.65005H9.84221V6.80005Z" fill="white"/>
<path d="M9.84221 4.25H8.05273V5.1H9.84221V4.25Z" fill="white"/>
<path d="M18.7895 19.55H11.6316V20.4H18.7895V19.55Z" fill="white"/>
<path d="M21.4736 19.55H19.6841V20.4H21.4736V19.55Z" fill="white"/>
<path d="M29.5265 24.6501H20.5791V25.5001H29.5265V24.6501Z" fill="white"/>
<path d="M19.6842 24.6501H17.8948V25.5001H19.6842V24.6501Z" fill="white"/>
<path d="M17 24.6501H11.6316V25.5001H17V24.6501Z" fill="white"/>
<path d="M22.3683 22.0999H15.2104V22.9499H22.3683V22.0999Z" fill="white"/>
<path d="M37.579 19.55H30.4211V20.4H37.579V19.55Z" fill="white"/>
<path d="M29.5265 19.55H22.3687V20.4H29.5265V19.55Z" fill="white"/>
<path d="M34.8947 14.4497H27.7368V15.2997H34.8947V14.4497Z" fill="white"/>
<path d="M26.8422 14.4497H25.0527V15.2997H26.8422V14.4497Z" fill="white"/>
<path d="M13.4211 11.9001H11.6316V12.7501H13.4211V11.9001Z" fill="white"/>
<path d="M20.5789 14.4497H17V15.2997H20.5789V14.4497Z" fill="white"/>
<path d="M15.2105 9.34985H11.6316V10.1999H15.2105V9.34985Z" fill="white"/>
<path d="M19.6844 9.34985H16.1055V10.1999H19.6844V9.34985Z" fill="white"/>
<path d="M32.2107 9.34985H20.5791V10.1999H32.2107V9.34985Z" fill="white"/>
<path d="M27.7369 6.80029H24.158V7.65029H27.7369V6.80029Z" fill="white"/>
<path d="M23.263 6.80029H19.6841V7.65029H23.263V6.80029Z" fill="white"/>
<path d="M30.4211 6.80029H28.6316V7.65029H30.4211V6.80029Z" fill="white"/>
<path d="M33.1053 17H28.6316V17.85H33.1053V17Z" fill="white"/>
<path d="M27.7369 17H24.158V17.85H27.7369V17Z" fill="white"/>
<path d="M21.4737 17H11.6316V17.85H21.4737V17Z" fill="white"/>
<path d="M18.7895 6.80029H11.6316V7.65029H18.7895V6.80029Z" fill="white"/>
<path d="M13.4211 4.25H11.6316V5.1H13.4211V4.25Z" fill="white"/>
</svg>
