<svg width="36" height="36" viewBox="0 0 36 36" fill="none" xmlns="http://www.w3.org/2000/svg">
<path d="M24.6667 6.66675H15.3334V7.33341H24.6667V6.66675Z" fill="white"/>
<path d="M28.6667 9.33325H15.3334V9.99992H28.6667V9.33325Z" fill="white"/>
<path d="M28.6667 17.3335H7.33337V18.0002H28.6667V17.3335Z" fill="white"/>
<path d="M28.6667 14.667H7.33337V15.3337H28.6667V14.667Z" fill="white"/>
<path d="M28.6667 12H7.33337V12.6667H28.6667V12Z" fill="white"/>
<path d="M24.6667 4.00024H15.3334V4.66691H24.6667V4.00024Z" fill="white"/>
<path d="M32.6667 12.4067V7.33333L25.3333 0H3.33333V12.4933L0 15.3333V21.2607V36H36V22.7V15.3333L32.6667 12.4067ZM26 1.60933L31.0573 6.66667H26V1.60933ZM1.874 35.3333L16.8707 23.1133C17.1607 22.8773 17.572 22.742 18 22.742C18.428 22.742 18.84 22.8773 19.1293 23.1133L34.126 35.3333H1.874ZM35.3333 15.704L21.546 23.3633L22.1027 23.8167L35.3333 16.466V22.694V35.4573L19.5507 22.5967C19.124 22.2493 18.5627 22.076 18 22.076C17.4373 22.076 16.8753 22.25 16.4493 22.5967L0.666667 35.4573V21.2427V16.466L13.8973 23.816L14.4533 23.3627L0.666667 15.704V15.6413L3.33333 13.37V16.5193L4 16.89V0.666667H25.0573H25.3333V7.33333H32V16.8887L32.6667 16.518V13.3693L35.3333 15.6407V15.704Z" fill="white"/>
<path d="M13.3334 4.00024H7.33337V10.0002H13.3334V4.00024ZM12.6667 9.33358H8.00004V4.66691H12.6667V9.33358Z" fill="white"/>
</svg>
