<svg width="128" height="26" viewBox="0 0 128 26" fill="none" xmlns="http://www.w3.org/2000/svg">
<g clip-path="url(#clip0_1107_10)">
<path d="M85.0903 0.0107422H107.386V4.12589H98.5414V25.7751H94.1189V4.12589H85.0903V0.0107422Z" fill="white"/>
<path d="M48.423 0.0107422V4.12589H30.5517V10.7459H44.9238V14.861H30.5517V21.66H48.423V25.7751H26.1295V4.12589H26.1277V0.0107422H48.423Z" fill="white"/>
<path d="M59.5558 0.0214844H53.7686L74.4974 25.7859H80.3016L69.9359 12.9125L80.285 0.041141L74.4974 0.0500847L67.0383 9.31401L59.5558 0.0214844Z" fill="white"/>
<path d="M65.4945 18.425L62.5963 14.8215L53.752 25.8054H59.5558L65.4945 18.425Z" fill="white"/>
<path fill-rule="evenodd" clip-rule="evenodd" d="M26.2845 25.7751L5.52775 0H0V25.7644H4.42221V5.50712L20.7291 25.7751H26.2845Z" fill="white"/>
<path d="M108.38 25.6177C108.056 25.6177 107.78 25.5055 107.55 25.2811C107.319 25.0567 107.205 24.7851 107.208 24.4632C107.205 24.1503 107.319 23.8815 107.55 23.6572C107.78 23.4328 108.056 23.3206 108.38 23.3206C108.691 23.3206 108.964 23.4328 109.195 23.6572C109.429 23.8815 109.545 24.1503 109.548 24.4632C109.545 24.6758 109.491 24.8707 109.383 25.0449C109.273 25.222 109.132 25.3608 108.955 25.4612C108.781 25.5646 108.589 25.6177 108.38 25.6177Z" fill="white"/>
<path d="M115.928 14.7639H117.887V22.3137C117.885 23.0076 117.734 23.6011 117.441 24.1001C117.144 24.5991 116.734 24.9799 116.207 25.2486C115.682 25.5143 115.068 25.6502 114.37 25.6502C113.731 25.6502 113.159 25.535 112.65 25.3106C112.14 25.0862 111.736 24.7496 111.439 24.3067C111.14 23.8638 110.993 23.3117 110.993 22.6503H112.956C112.958 22.9397 113.024 23.1906 113.15 23.4003C113.276 23.6099 113.45 23.7693 113.672 23.8815C113.896 23.9938 114.154 24.0499 114.444 24.0499C114.759 24.0499 115.029 23.9849 115.248 23.852C115.466 23.7221 115.634 23.5272 115.751 23.2674C115.865 23.0106 115.925 22.6917 115.928 22.3137V14.7639Z" fill="white"/>
<path d="M125.95 17.7167C125.903 17.259 125.693 16.9017 125.327 16.6478C124.959 16.391 124.482 16.264 123.898 16.264C123.488 16.264 123.134 16.326 122.84 16.4471C122.547 16.5711 122.319 16.7364 122.163 16.946C122.007 17.1557 121.93 17.3948 121.923 17.6635C121.923 17.8879 121.977 18.0828 122.082 18.2452C122.187 18.4105 122.328 18.5493 122.511 18.6615C122.69 18.7767 122.891 18.8711 123.11 18.9479C123.332 19.0247 123.554 19.0896 123.775 19.1428L124.797 19.3938C125.207 19.4882 125.606 19.6152 125.987 19.7776C126.367 19.937 126.712 20.1408 127.014 20.3858C127.317 20.6309 127.557 20.9261 127.733 21.2716C127.91 21.6171 128 22.0216 128 22.4881C128 23.117 127.838 23.6691 127.511 24.1474C127.185 24.6228 126.715 24.9948 126.097 25.2635C125.483 25.5293 124.74 25.6651 123.865 25.6651C123.02 25.6651 122.283 25.5352 121.663 25.2754C121.04 25.0185 120.554 24.6405 120.203 24.1445C119.853 23.6485 119.664 23.0431 119.637 22.3316H121.579C121.606 22.7036 121.726 23.0136 121.93 23.2646C122.136 23.5126 122.406 23.6957 122.736 23.8197C123.068 23.9407 123.44 24.0028 123.85 24.0028C124.279 24.0028 124.656 23.9378 124.983 23.8108C125.306 23.6839 125.561 23.5067 125.744 23.2764C125.93 23.0491 126.023 22.7804 126.026 22.4733C126.023 22.1928 125.938 21.9595 125.777 21.7765C125.612 21.5934 125.384 21.4399 125.093 21.3159C124.8 21.1919 124.458 21.0797 124.069 20.9823L122.828 20.6693C121.932 20.4419 121.222 20.0965 120.704 19.6329C120.183 19.1694 119.925 18.5552 119.925 17.7846C119.925 17.1527 120.099 16.5977 120.449 16.1223C120.797 15.6469 121.273 15.2778 121.876 15.015C122.481 14.7493 123.164 14.6194 123.925 14.6194C124.698 14.6194 125.375 14.7493 125.96 15.015C126.544 15.2778 127.002 15.644 127.335 16.1105C127.667 16.577 127.841 17.1114 127.85 17.7167H125.95Z" fill="white"/>
</g>
<defs>
<clipPath id="clip0_1107_10">
<rect width="128" height="25.665" fill="white"/>
</clipPath>
</defs>
</svg>
