<svg width="28" height="25" viewBox="0 0 28 25" fill="none" xmlns="http://www.w3.org/2000/svg">
<path d="M14.0049 14.9317C15.3867 14.9317 16.5068 13.8115 16.5068 12.4297C16.5068 11.0479 15.3867 9.92773 14.0049 9.92773C12.6231 9.92773 11.5029 11.0479 11.5029 12.4297C11.5029 13.8115 12.6231 14.9317 14.0049 14.9317Z" fill="#00D8FF"/>
<path d="M14.005 18.1609C10.4913 18.1609 7.42115 17.7472 5.12353 16.9597C3.63332 16.4514 2.36739 15.7735 1.46529 15.001C0.508366 14.1837 0 13.2915 0 12.4293C0 10.7746 1.81417 9.15482 4.85938 8.09822C7.35137 7.231 10.6009 6.74756 14 6.74756C17.3393 6.74756 20.544 7.21605 23.021 8.0733C24.4713 8.57169 25.6924 9.21961 26.5596 9.93731C27.5016 10.7248 28 11.587 28 12.4293C28 14.1488 25.9715 15.8882 22.702 16.9697C20.3895 17.7372 17.2994 18.1609 14.005 18.1609ZM14.005 7.94371C10.7803 7.94371 7.5906 8.41221 5.2581 9.2246C2.4571 10.2015 1.20114 11.5372 1.20114 12.4293C1.20114 13.3563 2.5518 14.8166 5.51228 15.8284C7.6853 16.571 10.6258 16.9647 14.005 16.9647C17.1748 16.9647 20.1303 16.566 22.3282 15.8334C25.4033 14.8116 26.8088 13.3513 26.8088 12.4293C26.8088 11.9558 26.45 11.3976 25.7971 10.8544C25.0445 10.2264 23.948 9.65322 22.6372 9.19968C20.2798 8.39227 17.2147 7.94371 14.005 7.94371Z" fill="#00D8FF"/>
<path d="M8.3282 24.8993C7.81984 24.8993 7.37128 24.7897 6.99249 24.5704C5.56209 23.7431 5.06369 21.3607 5.66676 18.1959C6.16017 15.5992 7.36629 12.549 9.06583 9.60351C10.7355 6.7128 12.739 4.17097 14.7177 2.4515C15.8739 1.44473 17.0452 0.707105 18.1018 0.318354C19.2531 -0.105284 20.2499 -0.105284 20.9775 0.313371C22.4678 1.17062 22.9612 3.80216 22.2634 7.17133C21.77 9.56364 20.5938 12.4494 18.9491 15.3052C17.1947 18.3454 15.3008 20.7975 13.4717 22.3974C12.2855 23.4341 11.0644 24.1916 9.948 24.5854C9.36487 24.7947 8.81663 24.8993 8.3282 24.8993ZM9.57918 9.90255L10.0975 10.2016C8.48769 12.9926 7.29652 15.988 6.83799 18.4202C6.28477 21.3358 6.81806 23.0902 7.58559 23.5337C7.77498 23.6434 8.02418 23.7032 8.3282 23.7032C9.32001 23.7032 10.88 23.0752 12.6842 21.5003C14.4136 19.9901 16.2228 17.6377 17.9124 14.7121C19.4973 11.9659 20.6237 9.20479 21.0922 6.93708C21.7451 3.76228 21.1819 1.81853 20.3795 1.35502C19.9708 1.12078 19.3079 1.15068 18.5105 1.44473C17.5884 1.78364 16.5468 2.44651 15.5001 3.35858C13.6212 4.99333 11.7024 7.42551 10.0975 10.2066L9.57918 9.90255Z" fill="#00D8FF"/>
<path d="M19.6818 24.9141C18.3262 24.9141 16.6067 24.0967 14.8125 22.5517C12.8089 20.8273 10.7705 18.2605 9.06596 15.315C7.39135 12.4243 6.19519 9.41892 5.69181 6.84221C5.39776 5.33704 5.34293 3.95648 5.53232 2.84505C5.74165 1.63395 6.23506 0.771718 6.96771 0.34808C8.45294 -0.514149 10.9798 0.372999 13.5515 2.66065C15.3757 4.28044 17.2895 6.74253 18.9392 9.59336C20.6986 12.6336 21.8798 15.4994 22.3483 17.8817C22.6523 19.4268 22.7021 20.8621 22.4878 22.0284C22.2586 23.2694 21.7402 24.1516 20.9926 24.5852C20.6188 24.8045 20.1753 24.9141 19.6818 24.9141ZM10.1026 14.7169C11.7174 17.5079 13.721 20.0348 15.595 21.6446C17.8428 23.5784 19.627 23.9971 20.3995 23.5485C21.202 23.085 21.7901 21.1861 21.182 18.116C20.7335 15.8632 19.6021 13.122 17.9075 10.1964C16.3177 7.45025 14.4885 5.09283 12.7591 3.55776C10.3369 1.40468 8.37319 0.921237 7.57077 1.38475C7.16208 1.61899 6.85806 2.21209 6.71353 3.0494C6.54906 4.01629 6.5989 5.25232 6.86803 6.61294C7.34649 9.06008 8.49281 11.9358 10.1026 14.7169Z" fill="#00D8FF"/>
</svg>
