<svg width="132" height="132" viewBox="0 0 132 132" fill="none" xmlns="http://www.w3.org/2000/svg">
<g filter="url(#filter0_d_1039_3)">
<rect x="4" width="124" height="124" rx="15" fill="#73A2FF" fill-opacity="0.15" shape-rendering="crispEdges"/>
</g>
<path d="M87.3086 28L83.4686 71.2L66.1543 76L48.84 71.2L45 28H87.3086ZM54.5314 55.4286L55.2686 63.76L66.1543 66.8286L77.0057 63.8286L79.4057 36.8286H52.8686L53.3486 42.1257H73.5943L73.1143 47.56H53.8286L54.2914 52.8571H72.6686L72.0514 59.7143L66.1543 61.3257L60.24 59.7314L59.8457 55.4286H54.5314Z" fill="#A6BCE7"/>
<path d="M51.4253 98.1C51.4253 98.9773 51.6073 99.7613 51.9713 100.452C52.3447 101.133 52.8487 101.67 53.4833 102.062C54.118 102.454 54.8367 102.65 55.6393 102.65C56.106 102.65 56.526 102.603 56.8993 102.51C57.282 102.417 57.6273 102.277 57.9353 102.09C58.2433 101.894 58.528 101.661 58.7893 101.39V102.006C58.3787 102.37 57.9307 102.65 57.4453 102.846C56.96 103.033 56.358 103.126 55.6393 103.126C54.958 103.126 54.328 103.005 53.7493 102.762C53.18 102.51 52.6853 102.16 52.2653 101.712C51.8453 101.255 51.5187 100.723 51.2853 100.116C51.052 99.5 50.9353 98.828 50.9353 98.1C50.9353 97.372 51.052 96.7047 51.2853 96.098C51.5187 95.482 51.8453 94.95 52.2653 94.502C52.6853 94.0447 53.18 93.6947 53.7493 93.452C54.328 93.2 54.958 93.074 55.6393 93.074C56.358 93.074 56.96 93.172 57.4453 93.368C57.9307 93.5547 58.3787 93.83 58.7893 94.194V94.796C58.5373 94.5253 58.248 94.2967 57.9213 94.11C57.604 93.9233 57.254 93.7833 56.8713 93.69C56.498 93.5967 56.0873 93.55 55.6393 93.55C54.8367 93.55 54.118 93.746 53.4833 94.138C52.8487 94.5207 52.3447 95.0527 51.9713 95.734C51.6073 96.4153 51.4253 97.204 51.4253 98.1ZM60.9253 100.27C61.0373 100.69 61.196 101.087 61.4013 101.46C61.616 101.824 61.9007 102.118 62.2553 102.342C62.61 102.566 63.058 102.678 63.5993 102.678C64.3087 102.678 64.8593 102.482 65.2513 102.09C65.6433 101.689 65.8393 101.185 65.8393 100.578C65.8393 100.083 65.7273 99.6773 65.5033 99.36C65.2793 99.0427 64.9947 98.786 64.6493 98.59C64.304 98.394 63.9447 98.226 63.5713 98.086C63.2633 97.9647 62.9553 97.8293 62.6473 97.68C62.3393 97.5213 62.0547 97.3393 61.7933 97.134C61.5413 96.9193 61.3407 96.6673 61.1913 96.378C61.042 96.0887 60.9673 95.7433 60.9673 95.342C60.9673 94.8847 61.07 94.488 61.2753 94.152C61.49 93.8067 61.784 93.5407 62.1573 93.354C62.5307 93.1673 62.9553 93.074 63.4313 93.074C63.9447 93.074 64.3833 93.172 64.7473 93.368C65.1113 93.564 65.41 93.8067 65.6433 94.096C65.8767 94.3853 66.0493 94.6747 66.1613 94.964L65.7413 95.188C65.648 94.9267 65.5033 94.67 65.3073 94.418C65.1207 94.166 64.8733 93.956 64.5653 93.788C64.2573 93.62 63.8747 93.536 63.4173 93.536C62.8107 93.536 62.3253 93.6947 61.9613 94.012C61.6067 94.3293 61.4293 94.7587 61.4293 95.3C61.4293 95.72 61.532 96.0793 61.7373 96.378C61.952 96.6673 62.2413 96.9193 62.6053 97.134C62.9787 97.3487 63.4127 97.5447 63.9073 97.722C64.1873 97.834 64.4673 97.9647 64.7473 98.114C65.0367 98.2633 65.298 98.4453 65.5313 98.66C65.7647 98.8747 65.9513 99.136 66.0913 99.444C66.2407 99.752 66.3153 100.116 66.3153 100.536C66.3153 100.909 66.25 101.255 66.1193 101.572C65.9887 101.889 65.802 102.165 65.5593 102.398C65.326 102.622 65.0413 102.799 64.7053 102.93C64.3693 103.061 63.996 103.126 63.5853 103.126C62.9973 103.126 62.498 103.005 62.0873 102.762C61.6767 102.519 61.3453 102.197 61.0933 101.796C60.8413 101.395 60.6593 100.961 60.5473 100.494L60.9253 100.27ZM68.0074 100.27C68.1194 100.69 68.278 101.087 68.4834 101.46C68.698 101.824 68.9827 102.118 69.3374 102.342C69.692 102.566 70.14 102.678 70.6814 102.678C71.3907 102.678 71.9414 102.482 72.3334 102.09C72.7254 101.689 72.9214 101.185 72.9214 100.578C72.9214 100.083 72.8094 99.6773 72.5854 99.36C72.3614 99.0427 72.0767 98.786 71.7314 98.59C71.386 98.394 71.0267 98.226 70.6534 98.086C70.3454 97.9647 70.0374 97.8293 69.7294 97.68C69.4214 97.5213 69.1367 97.3393 68.8754 97.134C68.6234 96.9193 68.4227 96.6673 68.2734 96.378C68.124 96.0887 68.0494 95.7433 68.0494 95.342C68.0494 94.8847 68.152 94.488 68.3574 94.152C68.572 93.8067 68.866 93.5407 69.2394 93.354C69.6127 93.1673 70.0374 93.074 70.5134 93.074C71.0267 93.074 71.4654 93.172 71.8294 93.368C72.1934 93.564 72.492 93.8067 72.7254 94.096C72.9587 94.3853 73.1314 94.6747 73.2434 94.964L72.8234 95.188C72.73 94.9267 72.5854 94.67 72.3894 94.418C72.2027 94.166 71.9554 93.956 71.6474 93.788C71.3394 93.62 70.9567 93.536 70.4994 93.536C69.8927 93.536 69.4074 93.6947 69.0434 94.012C68.6887 94.3293 68.5114 94.7587 68.5114 95.3C68.5114 95.72 68.614 96.0793 68.8194 96.378C69.034 96.6673 69.3234 96.9193 69.6874 97.134C70.0607 97.3487 70.4947 97.5447 70.9894 97.722C71.2694 97.834 71.5494 97.9647 71.8294 98.114C72.1187 98.2633 72.38 98.4453 72.6134 98.66C72.8467 98.8747 73.0334 99.136 73.1734 99.444C73.3227 99.752 73.3974 100.116 73.3974 100.536C73.3974 100.909 73.332 101.255 73.2014 101.572C73.0707 101.889 72.884 102.165 72.6414 102.398C72.408 102.622 72.1234 102.799 71.7874 102.93C71.4514 103.061 71.078 103.126 70.6674 103.126C70.0794 103.126 69.58 103.005 69.1694 102.762C68.7587 102.519 68.4274 102.197 68.1754 101.796C67.9234 101.395 67.7414 100.961 67.6294 100.494L68.0074 100.27ZM77.5114 98.002V97.694C77.8287 97.694 78.1414 97.6473 78.4494 97.554C78.7667 97.4513 79.0514 97.3113 79.3034 97.134C79.5647 96.9473 79.7701 96.7233 79.9194 96.462C80.0781 96.2007 80.1574 95.9113 80.1574 95.594C80.1574 95.2207 80.0734 94.8753 79.9054 94.558C79.7467 94.2313 79.5041 93.97 79.1774 93.774C78.8601 93.578 78.4681 93.48 78.0014 93.48C77.3201 93.48 76.7741 93.6853 76.3634 94.096C75.9621 94.4973 75.7614 95.0107 75.7614 95.636H75.3414C75.3414 95.1227 75.4487 94.6747 75.6634 94.292C75.8874 93.9093 76.1954 93.6107 76.5874 93.396C76.9887 93.172 77.4554 93.06 77.9874 93.06C78.5474 93.06 79.0234 93.1813 79.4154 93.424C79.8074 93.6573 80.1014 93.9653 80.2974 94.348C80.5027 94.7213 80.6054 95.1273 80.6054 95.566C80.6054 96.0513 80.4561 96.4807 80.1574 96.854C79.8681 97.218 79.4901 97.5027 79.0234 97.708C78.5567 97.904 78.0527 98.002 77.5114 98.002ZM77.9314 103.14C77.4554 103.14 77.0307 103.07 76.6574 102.93C76.2934 102.79 75.9807 102.599 75.7194 102.356C75.4581 102.104 75.2574 101.815 75.1174 101.488C74.9867 101.152 74.9214 100.793 74.9214 100.41H75.3694C75.3694 100.849 75.4674 101.245 75.6634 101.6C75.8687 101.945 76.1627 102.216 76.5454 102.412C76.9374 102.608 77.3994 102.706 77.9314 102.706C78.4447 102.706 78.8881 102.613 79.2614 102.426C79.6347 102.239 79.9241 101.978 80.1294 101.642C80.3347 101.297 80.4374 100.905 80.4374 100.466C80.4374 100.074 80.3441 99.7287 80.1574 99.43C79.9801 99.1313 79.7421 98.884 79.4434 98.688C79.1541 98.492 78.8367 98.3473 78.4914 98.254C78.1554 98.1513 77.8287 98.1 77.5114 98.1V97.792C77.9127 97.792 78.3094 97.848 78.7014 97.96C79.1027 98.072 79.4667 98.24 79.7934 98.464C80.1294 98.688 80.3954 98.9727 80.5914 99.318C80.7874 99.654 80.8854 100.051 80.8854 100.508C80.8854 101.031 80.7594 101.493 80.5074 101.894C80.2647 102.286 79.9194 102.594 79.4714 102.818C79.0327 103.033 78.5194 103.14 77.9314 103.14Z" fill="white"/>
<defs>
<filter id="filter0_d_1039_3" x="0" y="0" width="132" height="132" filterUnits="userSpaceOnUse" color-interpolation-filters="sRGB">
<feFlood flood-opacity="0" result="BackgroundImageFix"/>
<feColorMatrix in="SourceAlpha" type="matrix" values="0 0 0 0 0 0 0 0 0 0 0 0 0 0 0 0 0 0 127 0" result="hardAlpha"/>
<feOffset dy="4"/>
<feGaussianBlur stdDeviation="2"/>
<feComposite in2="hardAlpha" operator="out"/>
<feColorMatrix type="matrix" values="0 0 0 0 0 0 0 0 0 0 0 0 0 0 0 0 0 0 0.25 0"/>
<feBlend mode="normal" in2="BackgroundImageFix" result="effect1_dropShadow_1039_3"/>
<feBlend mode="normal" in="SourceGraphic" in2="effect1_dropShadow_1039_3" result="shape"/>
</filter>
</defs>
</svg>
