<svg width="132" height="132" viewBox="0 0 132 132" fill="none" xmlns="http://www.w3.org/2000/svg">
<g filter="url(#filter0_d_1039_6)">
<rect x="4" width="124" height="124" rx="15" fill="#73A2FF" fill-opacity="0.15" shape-rendering="crispEdges"/>
</g>
<path d="M73.4924 46.3208H58.4129C56.0451 46.2285 53.8051 45.2231 52.1626 43.5152C50.52 41.8074 49.6025 39.5299 49.6025 37.1604C49.6025 34.7909 50.52 32.5134 52.1626 30.8056C53.8051 29.0978 56.0451 28.0923 58.4129 28H73.4924C75.8601 28.0923 78.1002 29.0978 79.7427 30.8056C81.3853 32.5134 82.3027 34.7909 82.3027 37.1604C82.3027 39.5299 81.3853 41.8074 79.7427 43.5152C78.1002 45.2231 75.8601 46.2285 73.4924 46.3208ZM58.4129 31.4778C56.9544 31.5499 55.5794 32.1802 54.5727 33.2379C53.566 34.2957 53.0045 35.7001 53.0045 37.1604C53.0045 38.6207 53.566 40.0251 54.5727 41.0829C55.5794 42.1407 56.9544 42.7709 58.4129 42.8431H73.4924C74.9509 42.7709 76.3258 42.1407 77.3326 41.0829C78.3393 40.0251 78.9008 38.6207 78.9008 37.1604C78.9008 35.7001 78.3393 34.2957 77.3326 33.2379C76.3258 32.1802 74.9509 31.5499 73.4924 31.4778H58.4129Z" fill="#A6BCE7"/>
<path d="M65.8415 61.1499H58.413C55.9853 61.1499 53.6571 60.1856 51.9405 58.4689C50.2239 56.7523 49.2595 54.4241 49.2595 51.9965C49.2595 49.5688 50.2239 47.2406 51.9405 45.524C53.6571 43.8074 55.9853 42.843 58.413 42.843C58.8742 42.843 59.3164 43.0262 59.6426 43.3523C59.9687 43.6784 60.1519 44.1207 60.1519 44.5819C60.1519 45.0431 59.9687 45.4854 59.6426 45.8115C59.3164 46.1376 58.8742 46.3208 58.413 46.3208C56.9077 46.3208 55.4641 46.9187 54.3997 47.9831C53.3353 49.0475 52.7373 50.4912 52.7373 51.9965C52.7373 53.5018 53.3353 54.9454 54.3997 56.0098C55.4641 57.0742 56.9077 57.6722 58.413 57.6722H64.1026V44.5819C64.1026 44.1207 64.2858 43.6784 64.6119 43.3523C64.938 43.0262 65.3803 42.843 65.8415 42.843C66.3026 42.843 66.7449 43.0262 67.071 43.3523C67.3971 43.6784 67.5803 44.1207 67.5803 44.5819V59.4111C67.5803 59.8722 67.3971 60.3145 67.071 60.6406C66.7449 60.9667 66.3026 61.1499 65.8415 61.1499Z" fill="#A6BCE7"/>
<path d="M58.5244 75.9931C57.2914 76.0411 56.0614 75.8398 54.9081 75.4011C53.7548 74.9624 52.7019 74.2953 51.8125 73.44C50.9232 72.5846 50.2157 71.5585 49.7324 70.4232C49.2491 69.2878 49 68.0666 49 66.8327C49 65.5987 49.2491 64.3775 49.7324 63.2421C50.2157 62.1068 50.9232 61.0807 51.8125 60.2253C52.7019 59.37 53.7548 58.7029 54.9081 58.2642C56.0614 57.8255 57.2914 57.6242 58.5244 57.6722C58.9856 57.6722 59.4279 57.8554 59.754 58.1815C60.0801 58.5076 60.2633 58.9499 60.2633 59.4111C60.2633 59.8723 60.0801 60.3146 59.754 60.6407C59.4279 60.9668 58.9856 61.15 58.5244 61.15C57.3985 61.1472 56.2971 61.4786 55.3597 62.1021C54.4222 62.7256 53.6908 63.6132 53.258 64.6526C52.8252 65.692 52.7106 66.8364 52.9285 67.941C53.1465 69.0456 53.6873 70.0607 54.4824 70.8578C55.2776 71.6549 56.2913 72.1982 57.3954 72.4189C58.4994 72.6395 59.6441 72.5277 60.6846 72.0974C61.725 71.6672 62.6145 70.938 63.2403 70.002C63.8661 69.0661 64.2001 67.9655 64.2001 66.8396V59.4111C64.2001 58.9499 64.3833 58.5076 64.7094 58.1815C65.0355 57.8554 65.4778 57.6722 65.939 57.6722C66.4002 57.6722 66.8425 57.8554 67.1686 58.1815C67.4947 58.5076 67.6779 58.9499 67.6779 59.4111V66.8396C67.6742 69.2661 66.7086 71.5922 64.9928 73.308C63.277 75.0238 60.9509 75.9894 58.5244 75.9931Z" fill="#A6BCE7"/>
<path d="M73.3675 61.3864C71.5324 61.3864 69.7384 60.8422 68.2126 59.8227C66.6867 58.8031 65.4974 57.354 64.7952 55.6585C64.0929 53.9631 63.9091 52.0975 64.2672 50.2976C64.6252 48.4977 65.5089 46.8444 66.8065 45.5468C68.1042 44.2491 69.7575 43.3654 71.5574 43.0074C73.3572 42.6494 75.2229 42.8331 76.9183 43.5354C78.6138 44.2377 80.0629 45.4269 81.0824 46.9528C82.102 48.4787 82.6462 50.2726 82.6462 52.1078C82.6462 53.3263 82.4062 54.5328 81.9399 55.6585C81.4736 56.7843 80.7901 57.8072 79.9285 58.6688C79.0669 59.5304 78.0441 60.2138 76.9183 60.6801C75.7926 61.1464 74.586 61.3864 73.3675 61.3864ZM73.3675 46.3208C72.2196 46.3208 71.0975 46.6613 70.1433 47.2994C69.189 47.9374 68.4455 48.8442 68.0069 49.905C67.5682 50.9658 67.4542 52.1329 67.6791 53.2585C67.9041 54.3841 68.458 55.4177 69.2706 56.2284C70.0833 57.0392 71.1182 57.5905 72.2444 57.8128C73.3706 58.0351 74.5374 57.9182 75.5971 57.477C76.6568 57.0358 77.5618 56.2901 78.1976 55.3343C78.8333 54.3786 79.1712 53.2557 79.1684 52.1078C79.1647 50.5717 78.552 49.0998 77.4645 48.0149C76.377 46.93 74.9036 46.3208 73.3675 46.3208Z" fill="#A6BCE7"/>
<path d="M65.8417 46.3208C65.6134 46.319 65.3876 46.2722 65.1773 46.1832C64.9671 46.0941 64.7764 45.9645 64.6162 45.8017C64.456 45.6389 64.3295 45.4462 64.2438 45.2345C64.1581 45.0229 64.1149 44.7964 64.1168 44.568L64.228 29.725C64.2317 29.2686 64.4146 28.832 64.7373 28.5093C65.06 28.1865 65.4966 28.0036 65.953 28C66.1814 28.0018 66.4071 28.0486 66.6174 28.1377C66.8277 28.2267 67.0183 28.3564 67.1785 28.5191C67.3387 28.6819 67.4653 28.8746 67.551 29.0863C67.6366 29.298 67.6798 29.5244 67.678 29.7528L67.5667 44.5959C67.5595 45.0511 67.3755 45.4857 67.0535 45.8077C66.7316 46.1296 66.297 46.3137 65.8417 46.3208Z" fill="#A6BCE7"/>
<path d="M50.7145 93.634V93.2H54.9425V93.634H50.7145ZM50.7145 97.918V97.484H54.8025V97.918H50.7145ZM50.4905 93.2H50.9525V103H50.4905V93.2ZM56.9283 93.452C56.9283 93.3587 56.9563 93.284 57.0123 93.228C57.0776 93.1627 57.1569 93.13 57.2503 93.13C57.3529 93.13 57.4323 93.1627 57.4883 93.228C57.5443 93.284 57.5723 93.3587 57.5723 93.452C57.5723 93.536 57.5443 93.6107 57.4883 93.676C57.4323 93.7413 57.3529 93.774 57.2503 93.774C57.1569 93.774 57.0776 93.7413 57.0123 93.676C56.9563 93.6107 56.9283 93.536 56.9283 93.452ZM57.0403 96.56H57.4743V103H57.0403V96.56ZM59.5034 103.42H59.9374C59.9374 103.896 60.0354 104.311 60.2314 104.666C60.4367 105.021 60.7214 105.301 61.0854 105.506C61.4494 105.711 61.8694 105.814 62.3454 105.814C62.7934 105.814 63.2134 105.707 63.6054 105.492C63.9974 105.287 64.3147 104.96 64.5574 104.512C64.8001 104.073 64.9214 103.523 64.9214 102.86V96.56H65.3414V102.86C65.3414 103.597 65.2014 104.213 64.9214 104.708C64.6507 105.212 64.2867 105.59 63.8294 105.842C63.3814 106.094 62.8867 106.22 62.3454 106.22C61.7854 106.22 61.2907 106.103 60.8614 105.87C60.4321 105.637 60.0961 105.305 59.8534 104.876C59.6201 104.456 59.5034 103.971 59.5034 103.42ZM59.3214 99.78C59.3214 99.0893 59.4567 98.4967 59.7274 98.002C59.9981 97.498 60.3621 97.1107 60.8194 96.84C61.2861 96.56 61.7994 96.42 62.3594 96.42C62.9287 96.42 63.4187 96.574 63.8294 96.882C64.2401 97.19 64.5574 97.6007 64.7814 98.114C65.0054 98.6273 65.1174 99.1827 65.1174 99.78C65.1174 100.368 65.0054 100.923 64.7814 101.446C64.5574 101.959 64.2401 102.37 63.8294 102.678C63.4187 102.986 62.9287 103.14 62.3594 103.14C61.7994 103.14 61.2861 103.005 60.8194 102.734C60.3621 102.454 59.9981 102.062 59.7274 101.558C59.4567 101.054 59.3214 100.461 59.3214 99.78ZM59.7554 99.78C59.7554 100.387 59.8721 100.914 60.1054 101.362C60.3481 101.801 60.6701 102.141 61.0714 102.384C61.4821 102.617 61.9394 102.734 62.4434 102.734C62.9007 102.734 63.3161 102.599 63.6894 102.328C64.0627 102.048 64.3614 101.679 64.5854 101.222C64.8094 100.765 64.9214 100.265 64.9214 99.724C64.9214 99.3507 64.8561 98.996 64.7254 98.66C64.5947 98.3147 64.4174 98.0067 64.1934 97.736C63.9694 97.456 63.7034 97.2367 63.3954 97.078C63.0967 96.91 62.7794 96.826 62.4434 96.826C61.9394 96.826 61.4821 96.9473 61.0714 97.19C60.6701 97.4233 60.3481 97.7593 60.1054 98.198C59.8721 98.6367 59.7554 99.164 59.7554 99.78ZM75.3067 98.646V103H74.8867V98.688C74.8867 98.1187 74.7747 97.666 74.5507 97.33C74.3267 96.994 73.9767 96.826 73.5007 96.826C73.1833 96.826 72.88 96.9287 72.5907 97.134C72.3107 97.33 72.082 97.6007 71.9047 97.946C71.7367 98.2913 71.6527 98.6693 71.6527 99.08V103H71.2327V98.688C71.2327 98.1187 71.1207 97.666 70.8967 97.33C70.6727 96.994 70.3227 96.826 69.8467 96.826C69.5293 96.826 69.2307 96.9287 68.9507 97.134C68.6707 97.33 68.442 97.6007 68.2647 97.946C68.0967 98.2913 68.0127 98.6693 68.0127 99.08V103H67.5787V96.56H68.0127V98.128C68.162 97.6053 68.4093 97.19 68.7547 96.882C69.1093 96.574 69.5013 96.42 69.9307 96.42C70.416 96.42 70.7987 96.574 71.0787 96.882C71.3587 97.1807 71.5313 97.5913 71.5967 98.114C71.7647 97.6007 72.0307 97.19 72.3947 96.882C72.7587 96.574 73.1553 96.42 73.5847 96.42C73.9673 96.42 74.2847 96.5133 74.5367 96.7C74.7887 96.8773 74.98 97.134 75.1107 97.47C75.2413 97.7967 75.3067 98.1887 75.3067 98.646ZM77.4041 101.096C77.4041 101.488 77.4881 101.805 77.6561 102.048C77.8335 102.291 78.0575 102.473 78.3281 102.594C78.6081 102.706 78.9021 102.762 79.2101 102.762C79.5928 102.762 79.9428 102.669 80.2601 102.482C80.5868 102.295 80.8528 102.011 81.0581 101.628C81.2635 101.245 81.3661 100.765 81.3661 100.186L81.4921 100.634C81.4921 101.194 81.3708 101.661 81.1281 102.034C80.8948 102.407 80.5961 102.687 80.2321 102.874C79.8681 103.051 79.4901 103.14 79.0981 103.14C78.7528 103.14 78.4168 103.07 78.0901 102.93C77.7635 102.781 77.4928 102.557 77.2781 102.258C77.0728 101.959 76.9701 101.581 76.9701 101.124C76.9701 100.499 77.1801 100.009 77.6001 99.654C78.0295 99.2993 78.5988 99.122 79.3081 99.122C79.7095 99.122 80.0548 99.1687 80.3441 99.262C80.6428 99.346 80.8948 99.444 81.1001 99.556C81.3055 99.668 81.4501 99.766 81.5341 99.85V100.172C81.2261 99.9387 80.8901 99.766 80.5261 99.654C80.1621 99.542 79.7748 99.486 79.3641 99.486C79.0095 99.486 78.6828 99.542 78.3841 99.654C78.0855 99.7567 77.8475 99.9293 77.6701 100.172C77.4928 100.405 77.4041 100.713 77.4041 101.096ZM77.5861 97.498L77.3761 97.176C77.6095 97.008 77.9081 96.84 78.2721 96.672C78.6361 96.504 79.0841 96.42 79.6161 96.42C80.0921 96.42 80.4888 96.4993 80.8061 96.658C81.1328 96.8167 81.3755 97.05 81.5341 97.358C81.7021 97.666 81.7861 98.0393 81.7861 98.478V103H81.3661V98.52C81.3661 98.3613 81.3475 98.1887 81.3101 98.002C81.2728 97.806 81.1935 97.6193 81.0721 97.442C80.9508 97.2553 80.7688 97.106 80.5261 96.994C80.2928 96.8727 79.9801 96.812 79.5881 96.812C79.2708 96.812 78.9861 96.8493 78.7341 96.924C78.4821 96.9987 78.2628 97.0873 78.0761 97.19C77.8895 97.2927 77.7261 97.3953 77.5861 97.498Z" fill="white"/>
<defs>
<filter id="filter0_d_1039_6" x="0" y="0" width="132" height="132" filterUnits="userSpaceOnUse" color-interpolation-filters="sRGB">
<feFlood flood-opacity="0" result="BackgroundImageFix"/>
<feColorMatrix in="SourceAlpha" type="matrix" values="0 0 0 0 0 0 0 0 0 0 0 0 0 0 0 0 0 0 127 0" result="hardAlpha"/>
<feOffset dy="4"/>
<feGaussianBlur stdDeviation="2"/>
<feComposite in2="hardAlpha" operator="out"/>
<feColorMatrix type="matrix" values="0 0 0 0 0 0 0 0 0 0 0 0 0 0 0 0 0 0 0.25 0"/>
<feBlend mode="normal" in2="BackgroundImageFix" result="effect1_dropShadow_1039_6"/>
<feBlend mode="normal" in="SourceGraphic" in2="effect1_dropShadow_1039_6" result="shape"/>
</filter>
</defs>
</svg>
