<svg width="132" height="132" viewBox="0 0 132 132" fill="none" xmlns="http://www.w3.org/2000/svg">
<g filter="url(#filter0_d_1039_2)">
<rect x="4" width="124" height="124" rx="15" fill="#73A2FF" fill-opacity="0.15" shape-rendering="crispEdges"/>
</g>
<path d="M54.295 32.3168H56.2791V34.4899H58.4493V28H56.2791V30.1447H54.295V28H52.1259V34.4899H54.295V32.3168Z" fill="#A6BCE7"/>
<path d="M61.301 34.4899H63.4702V30.1535H65.3789V28H59.3923V30.1535H61.301V34.4899Z" fill="#A6BCE7"/>
<path d="M68.452 31.2748L69.9464 33.5811H69.9827L71.4742 31.2748V34.4899H73.6355V28H71.3733L69.9827 30.2838L68.592 28H66.3308V34.4899H68.452V31.2748Z" fill="#A6BCE7"/>
<path d="M79.9342 32.3462H76.8837V28H74.7145V34.4899H79.9342V32.3462Z" fill="#A6BCE7"/>
<path d="M49 37.3376L52.1025 72.1346L66.0293 75.9999L79.9668 72.1365L83.0752 37.3376H49ZM76.3443 48.7173H66.0371H60.0124L60.4021 53.0879H66.0371H75.9565L74.7863 66.1941L66.0371 68.6179L66.0312 68.6198L57.2879 66.1941L56.6778 59.3389H60.9613L61.2786 62.8948L66.0322 64.1796L66.0381 64.1777L70.7965 62.8928L71.2921 57.3577H66.0381H56.5006L55.3479 44.4514H66.0371H76.7253L76.3443 48.7173Z" fill="#A6BCE7"/>
<path d="M43.8561 97.876V97.442H50.3801V97.876H43.8561ZM50.0721 93.2H50.5341V103H50.0721V93.2ZM43.6321 93.2H44.0941V103H43.6321V93.2ZM51.99 93.634V93.2H57.688V93.634H55.07V103H54.608V93.634H51.99ZM60.0596 94.376L59.1496 103H58.6876L59.7796 92.906L63.6996 100.774L67.6196 92.906L68.7116 103H68.2496L67.3396 94.376L63.6996 101.698L60.0596 94.376ZM70.6887 93.2H71.1367V102.566H75.3367V103H70.6887V93.2ZM86.7516 99.78C86.7516 100.34 86.6676 100.83 86.4996 101.25C86.3316 101.67 86.0983 102.02 85.7996 102.3C85.5103 102.58 85.1696 102.79 84.7776 102.93C84.395 103.07 83.975 103.14 83.5176 103.14C82.9856 103.14 82.519 103.056 82.1176 102.888C81.7256 102.711 81.3896 102.468 81.1096 102.16C80.839 101.852 80.615 101.493 80.4376 101.082L80.8156 100.83C80.9836 101.203 81.189 101.535 81.4316 101.824C81.6836 102.104 81.9823 102.323 82.3276 102.482C82.6823 102.631 83.079 102.706 83.5176 102.706C84.0496 102.706 84.5256 102.594 84.9456 102.37C85.3656 102.146 85.6923 101.815 85.9256 101.376C86.1683 100.937 86.2896 100.405 86.2896 99.78C86.2896 99.248 86.1776 98.7813 85.9536 98.38C85.7296 97.9787 85.4263 97.6613 85.0436 97.428C84.6703 97.1947 84.2503 97.078 83.7836 97.078C83.4103 97.078 83.0603 97.1293 82.7336 97.232C82.4163 97.3253 82.1176 97.4747 81.8376 97.68C81.5576 97.876 81.2823 98.1233 81.0116 98.422L82.2996 93.2H86.9196V93.606H82.6496L81.6556 97.638C81.8703 97.3767 82.1736 97.1527 82.5656 96.966C82.9576 96.77 83.4103 96.672 83.9236 96.672C84.4556 96.672 84.9316 96.8027 85.3516 97.064C85.781 97.3253 86.1216 97.6893 86.3736 98.156C86.6256 98.6227 86.7516 99.164 86.7516 99.78Z" fill="white"/>
<defs>
<filter id="filter0_d_1039_2" x="0" y="0" width="132" height="132" filterUnits="userSpaceOnUse" color-interpolation-filters="sRGB">
<feFlood flood-opacity="0" result="BackgroundImageFix"/>
<feColorMatrix in="SourceAlpha" type="matrix" values="0 0 0 0 0 0 0 0 0 0 0 0 0 0 0 0 0 0 127 0" result="hardAlpha"/>
<feOffset dy="4"/>
<feGaussianBlur stdDeviation="2"/>
<feComposite in2="hardAlpha" operator="out"/>
<feColorMatrix type="matrix" values="0 0 0 0 0 0 0 0 0 0 0 0 0 0 0 0 0 0 0.25 0"/>
<feBlend mode="normal" in2="BackgroundImageFix" result="effect1_dropShadow_1039_2"/>
<feBlend mode="normal" in="SourceGraphic" in2="effect1_dropShadow_1039_2" result="shape"/>
</filter>
</defs>
</svg>
