<svg width="132" height="132" viewBox="0 0 132 132" fill="none" xmlns="http://www.w3.org/2000/svg">
<g filter="url(#filter0_d_1039_4)">
<rect x="4" width="124" height="124" rx="15" fill="#73A2FF" fill-opacity="0.15" shape-rendering="crispEdges"/>
</g>
<path d="M42 28V76H90V28H42ZM67.7143 65.2857C67.7143 69.9582 64.9543 72.2361 60.9589 72.2361C57.3504 72.2361 55.2557 70.3675 54.1929 68.1121L57.8657 65.8889C58.5739 67.1457 59.1118 68.2086 60.6579 68.2086C61.9436 68.2086 63 67.6289 63 65.3736V50.2857H67.7143V65.2857ZM78.3589 72.1289C74.1707 72.1289 71.4643 70.2389 70.1432 67.6289L73.8214 65.5C74.7857 67.0793 76.0446 68.1314 78.2679 68.1314C80.1364 68.1314 81.2218 67.3043 81.2218 66.0154C81.2218 64.4693 80.1043 63.9218 78.0418 63.0154L76.9146 62.5311C73.6596 61.1468 71.5018 59.4068 71.5018 55.7329C71.5018 52.3504 74.0786 49.8796 78.1061 49.8796C80.9743 49.8796 83.0346 50.7711 84.5186 53.3811L81 55.6429C80.2264 54.2575 79.3929 53.7143 78.1007 53.7143C76.7796 53.7143 75.9418 54.5521 75.9418 55.6429C75.9418 56.9961 76.7796 57.5436 78.7125 58.3814L79.8396 58.8646C83.6743 60.5082 85.8332 62.1861 85.8332 65.9532C85.8343 70.0139 82.6446 72.1289 78.3589 72.1289Z" fill="#A6BCE7"/>
<path d="M37.9437 104.988C38.0931 105.156 38.2937 105.305 38.5457 105.436C38.7884 105.576 39.0591 105.646 39.3577 105.646C39.8617 105.646 40.2164 105.497 40.4217 105.198C40.6364 104.909 40.7437 104.409 40.7437 103.7V93.2H41.1917V103.84C41.1917 104.223 41.1544 104.554 41.0797 104.834C41.0144 105.114 40.9071 105.347 40.7577 105.534C40.6084 105.721 40.4171 105.856 40.1837 105.94C39.9504 106.033 39.6704 106.08 39.3437 106.08C39.1011 106.08 38.8677 106.038 38.6437 105.954C38.4104 105.87 38.2144 105.767 38.0557 105.646C37.8877 105.525 37.7664 105.417 37.6917 105.324L37.9437 104.988ZM43.3612 101.096C43.3612 101.488 43.4452 101.805 43.6132 102.048C43.7905 102.291 44.0145 102.473 44.2852 102.594C44.5652 102.706 44.8592 102.762 45.1672 102.762C45.5498 102.762 45.8998 102.669 46.2172 102.482C46.5438 102.295 46.8098 102.011 47.0152 101.628C47.2205 101.245 47.3232 100.765 47.3232 100.186L47.4492 100.634C47.4492 101.194 47.3278 101.661 47.0852 102.034C46.8518 102.407 46.5532 102.687 46.1892 102.874C45.8252 103.051 45.4472 103.14 45.0552 103.14C44.7098 103.14 44.3738 103.07 44.0472 102.93C43.7205 102.781 43.4498 102.557 43.2352 102.258C43.0298 101.959 42.9272 101.581 42.9272 101.124C42.9272 100.499 43.1372 100.009 43.5572 99.654C43.9865 99.2993 44.5558 99.122 45.2652 99.122C45.6665 99.122 46.0118 99.1687 46.3012 99.262C46.5998 99.346 46.8518 99.444 47.0572 99.556C47.2625 99.668 47.4072 99.766 47.4912 99.85V100.172C47.1832 99.9387 46.8472 99.766 46.4832 99.654C46.1192 99.542 45.7318 99.486 45.3212 99.486C44.9665 99.486 44.6398 99.542 44.3412 99.654C44.0425 99.7567 43.8045 99.9293 43.6272 100.172C43.4498 100.405 43.3612 100.713 43.3612 101.096ZM43.5432 97.498L43.3332 97.176C43.5665 97.008 43.8652 96.84 44.2292 96.672C44.5932 96.504 45.0412 96.42 45.5732 96.42C46.0492 96.42 46.4458 96.4993 46.7632 96.658C47.0898 96.8167 47.3325 97.05 47.4912 97.358C47.6592 97.666 47.7432 98.0393 47.7432 98.478V103H47.3232V98.52C47.3232 98.3613 47.3045 98.1887 47.2672 98.002C47.2298 97.806 47.1505 97.6193 47.0292 97.442C46.9078 97.2553 46.7258 97.106 46.4832 96.994C46.2498 96.8727 45.9372 96.812 45.5452 96.812C45.2278 96.812 44.9432 96.8493 44.6912 96.924C44.4392 96.9987 44.2198 97.0873 44.0332 97.19C43.8465 97.2927 43.6832 97.3953 43.5432 97.498ZM48.7142 96.56H49.2042L51.5982 102.342L53.9922 96.56H54.4822L51.5982 103.294L48.7142 96.56ZM55.5291 101.096C55.5291 101.488 55.6131 101.805 55.7811 102.048C55.9585 102.291 56.1825 102.473 56.4531 102.594C56.7331 102.706 57.0271 102.762 57.3351 102.762C57.7178 102.762 58.0678 102.669 58.3851 102.482C58.7118 102.295 58.9778 102.011 59.1831 101.628C59.3885 101.245 59.4911 100.765 59.4911 100.186L59.6171 100.634C59.6171 101.194 59.4958 101.661 59.2531 102.034C59.0198 102.407 58.7211 102.687 58.3571 102.874C57.9931 103.051 57.6151 103.14 57.2231 103.14C56.8778 103.14 56.5418 103.07 56.2151 102.93C55.8885 102.781 55.6178 102.557 55.4031 102.258C55.1978 101.959 55.0951 101.581 55.0951 101.124C55.0951 100.499 55.3051 100.009 55.7251 99.654C56.1545 99.2993 56.7238 99.122 57.4331 99.122C57.8345 99.122 58.1798 99.1687 58.4691 99.262C58.7678 99.346 59.0198 99.444 59.2251 99.556C59.4305 99.668 59.5751 99.766 59.6591 99.85V100.172C59.3511 99.9387 59.0151 99.766 58.6511 99.654C58.2871 99.542 57.8998 99.486 57.4891 99.486C57.1345 99.486 56.8078 99.542 56.5091 99.654C56.2105 99.7567 55.9725 99.9293 55.7951 100.172C55.6178 100.405 55.5291 100.713 55.5291 101.096ZM55.7111 97.498L55.5011 97.176C55.7345 97.008 56.0331 96.84 56.3971 96.672C56.7611 96.504 57.2091 96.42 57.7411 96.42C58.2171 96.42 58.6138 96.4993 58.9311 96.658C59.2578 96.8167 59.5005 97.05 59.6591 97.358C59.8271 97.666 59.9111 98.0393 59.9111 98.478V103H59.4911V98.52C59.4911 98.3613 59.4725 98.1887 59.4351 98.002C59.3978 97.806 59.3185 97.6193 59.1971 97.442C59.0758 97.2553 58.8938 97.106 58.6511 96.994C58.4178 96.8727 58.1051 96.812 57.7131 96.812C57.3958 96.812 57.1111 96.8493 56.8591 96.924C56.6071 96.9987 56.3878 97.0873 56.2011 97.19C56.0145 97.2927 55.8511 97.3953 55.7111 97.498ZM61.9165 100.27C62.0285 100.69 62.1872 101.087 62.3925 101.46C62.6072 101.824 62.8919 102.118 63.2465 102.342C63.6012 102.566 64.0492 102.678 64.5905 102.678C65.2999 102.678 65.8505 102.482 66.2425 102.09C66.6345 101.689 66.8305 101.185 66.8305 100.578C66.8305 100.083 66.7185 99.6773 66.4945 99.36C66.2705 99.0427 65.9859 98.786 65.6405 98.59C65.2952 98.394 64.9359 98.226 64.5625 98.086C64.2545 97.9647 63.9465 97.8293 63.6385 97.68C63.3305 97.5213 63.0459 97.3393 62.7845 97.134C62.5325 96.9193 62.3319 96.6673 62.1825 96.378C62.0332 96.0887 61.9585 95.7433 61.9585 95.342C61.9585 94.8847 62.0612 94.488 62.2665 94.152C62.4812 93.8067 62.7752 93.5407 63.1485 93.354C63.5219 93.1673 63.9465 93.074 64.4225 93.074C64.9359 93.074 65.3745 93.172 65.7385 93.368C66.1025 93.564 66.4012 93.8067 66.6345 94.096C66.8679 94.3853 67.0405 94.6747 67.1525 94.964L66.7325 95.188C66.6392 94.9267 66.4945 94.67 66.2985 94.418C66.1119 94.166 65.8645 93.956 65.5565 93.788C65.2485 93.62 64.8659 93.536 64.4085 93.536C63.8019 93.536 63.3165 93.6947 62.9525 94.012C62.5979 94.3293 62.4205 94.7587 62.4205 95.3C62.4205 95.72 62.5232 96.0793 62.7285 96.378C62.9432 96.6673 63.2325 96.9193 63.5965 97.134C63.9699 97.3487 64.4039 97.5447 64.8985 97.722C65.1785 97.834 65.4585 97.9647 65.7385 98.114C66.0279 98.2633 66.2892 98.4453 66.5225 98.66C66.7559 98.8747 66.9425 99.136 67.0825 99.444C67.2319 99.752 67.3065 100.116 67.3065 100.536C67.3065 100.909 67.2412 101.255 67.1105 101.572C66.9799 101.889 66.7932 102.165 66.5505 102.398C66.3172 102.622 66.0325 102.799 65.6965 102.93C65.3605 103.061 64.9872 103.126 64.5765 103.126C63.9885 103.126 63.4892 103.005 63.0785 102.762C62.6679 102.519 62.3365 102.197 62.0845 101.796C61.8325 101.395 61.6505 100.961 61.5385 100.494L61.9165 100.27ZM68.8866 99.78C68.8866 100.349 69.0126 100.858 69.2646 101.306C69.5166 101.754 69.8572 102.104 70.2866 102.356C70.7252 102.608 71.2106 102.734 71.7426 102.734C72.0879 102.734 72.4052 102.683 72.6946 102.58C72.9932 102.477 73.2499 102.356 73.4646 102.216C73.6792 102.067 73.8332 101.922 73.9266 101.782V102.328C73.7586 102.524 73.4739 102.711 73.0726 102.888C72.6712 103.056 72.2279 103.14 71.7426 103.14C71.1172 103.14 70.5572 102.995 70.0626 102.706C69.5679 102.417 69.1759 102.02 68.8866 101.516C68.5972 101.003 68.4526 100.424 68.4526 99.78C68.4526 99.1267 68.5972 98.548 68.8866 98.044C69.1759 97.54 69.5679 97.1433 70.0626 96.854C70.5572 96.5647 71.1172 96.42 71.7426 96.42C72.2279 96.42 72.6712 96.5087 73.0726 96.686C73.4739 96.854 73.7586 97.036 73.9266 97.232V97.778C73.8332 97.638 73.6792 97.498 73.4646 97.358C73.2499 97.2087 72.9932 97.0827 72.6946 96.98C72.4052 96.8773 72.0879 96.826 71.7426 96.826C71.2106 96.826 70.7252 96.952 70.2866 97.204C69.8572 97.456 69.5166 97.806 69.2646 98.254C69.0126 98.702 68.8866 99.2107 68.8866 99.78ZM76.3115 96.56V103H75.8775V96.56H76.3115ZM78.5935 97.12C78.4628 97.0267 78.3322 96.9567 78.2015 96.91C78.0708 96.854 77.9308 96.826 77.7815 96.826C77.4362 96.826 77.1515 96.9287 76.9275 97.134C76.7128 97.3393 76.5542 97.6147 76.4515 97.96C76.3582 98.296 76.3115 98.6693 76.3115 99.08H76.1155C76.1155 98.5667 76.1808 98.114 76.3115 97.722C76.4515 97.3207 76.6522 97.0033 76.9135 96.77C77.1842 96.5367 77.5015 96.42 77.8655 96.42C78.0428 96.42 78.2155 96.4527 78.3835 96.518C78.5515 96.574 78.7008 96.658 78.8315 96.77L78.5935 97.12ZM80.1568 93.452C80.1568 93.3587 80.1848 93.284 80.2408 93.228C80.3061 93.1627 80.3855 93.13 80.4788 93.13C80.5815 93.13 80.6608 93.1627 80.7168 93.228C80.7728 93.284 80.8008 93.3587 80.8008 93.452C80.8008 93.536 80.7728 93.6107 80.7168 93.676C80.6608 93.7413 80.5815 93.774 80.4788 93.774C80.3855 93.774 80.3061 93.7413 80.2408 93.676C80.1848 93.6107 80.1568 93.536 80.1568 93.452ZM80.2688 96.56H80.7028V103H80.2688V96.56ZM83.4739 106.08H83.0399V96.56H83.4739V106.08ZM89.0599 99.78C89.0599 100.461 88.9246 101.054 88.6539 101.558C88.3926 102.062 88.0286 102.454 87.5619 102.734C87.1046 103.005 86.5912 103.14 86.0219 103.14C85.4619 103.14 84.9766 102.986 84.5659 102.678C84.1552 102.37 83.8379 101.959 83.6139 101.446C83.3899 100.923 83.2779 100.368 83.2779 99.78C83.2779 99.1827 83.3899 98.6273 83.6139 98.114C83.8379 97.6007 84.1552 97.19 84.5659 96.882C84.9766 96.574 85.4619 96.42 86.0219 96.42C86.5912 96.42 87.1046 96.56 87.5619 96.84C88.0286 97.1107 88.3926 97.498 88.6539 98.002C88.9246 98.4967 89.0599 99.0893 89.0599 99.78ZM88.6399 99.78C88.6399 99.164 88.5186 98.6367 88.2759 98.198C88.0332 97.7593 87.7112 97.4233 87.3099 97.19C86.9086 96.9473 86.4559 96.826 85.9519 96.826C85.5039 96.826 85.0886 96.966 84.7059 97.246C84.3326 97.5167 84.0339 97.876 83.8099 98.324C83.5859 98.7627 83.4739 99.248 83.4739 99.78C83.4739 100.312 83.5859 100.802 83.8099 101.25C84.0339 101.689 84.3326 102.048 84.7059 102.328C85.0886 102.599 85.5039 102.734 85.9519 102.734C86.4559 102.734 86.9086 102.617 87.3099 102.384C87.7112 102.141 88.0332 101.801 88.2759 101.362C88.5186 100.914 88.6399 100.387 88.6399 99.78ZM89.8272 96.56H92.3612V96.966H89.8272V96.56ZM90.8772 94.32H91.3112V103H90.8772V94.32Z" fill="white"/>
<defs>
<filter id="filter0_d_1039_4" x="0" y="0" width="132" height="132" filterUnits="userSpaceOnUse" color-interpolation-filters="sRGB">
<feFlood flood-opacity="0" result="BackgroundImageFix"/>
<feColorMatrix in="SourceAlpha" type="matrix" values="0 0 0 0 0 0 0 0 0 0 0 0 0 0 0 0 0 0 127 0" result="hardAlpha"/>
<feOffset dy="4"/>
<feGaussianBlur stdDeviation="2"/>
<feComposite in2="hardAlpha" operator="out"/>
<feColorMatrix type="matrix" values="0 0 0 0 0 0 0 0 0 0 0 0 0 0 0 0 0 0 0.25 0"/>
<feBlend mode="normal" in2="BackgroundImageFix" result="effect1_dropShadow_1039_4"/>
<feBlend mode="normal" in="SourceGraphic" in2="effect1_dropShadow_1039_4" result="shape"/>
</filter>
</defs>
</svg>
