<svg width="132" height="132" viewBox="0 0 132 132" fill="none" xmlns="http://www.w3.org/2000/svg">
<g filter="url(#filter0_d_1039_8)">
<rect x="4" width="124" height="124" rx="15" fill="#73A2FF" fill-opacity="0.15" shape-rendering="crispEdges"/>
</g>
<path d="M56.4 42.4L57.6971 41.4632C57.2908 40.9006 56.5681 40.6641 55.9077 40.8776C55.2474 41.0911 54.8 41.706 54.8 42.4H56.4ZM66 72.8C54.5125 72.8 45.2 63.4877 45.2 52H42C42 65.2547 52.7452 76 66 76V72.8ZM86.8 52C86.8 63.4877 77.4877 72.8 66 72.8V76C79.2547 76 90 65.2547 90 52H86.8ZM66 31.2C77.4877 31.2 86.8 40.5125 86.8 52H90C90 38.7452 79.2547 28 66 28V31.2ZM66 28C52.7452 28 42 38.7452 42 52H45.2C45.2 40.5125 54.5125 31.2 66 31.2V28ZM58 66.4V42.4H54.8V66.4H58ZM55.1029 43.3368L75.903 72.1366L78.497 70.2634L57.6971 41.4632L55.1029 43.3368ZM74 40.8V60H77.2V40.8H74Z" fill="#A6BCE7"/>
<path d="M55.7445 93.2H56.2065V103.294L48.7445 94.152V103H48.2825V92.906L55.7445 102.09V93.2ZM60.9417 103.14C60.3817 103.14 59.8777 102.995 59.4297 102.706C58.9911 102.407 58.6457 102.006 58.3937 101.502C58.1417 100.989 58.0157 100.41 58.0157 99.766C58.0157 99.1127 58.1464 98.534 58.4077 98.03C58.6691 97.526 59.0237 97.134 59.4717 96.854C59.9291 96.5647 60.4471 96.42 61.0257 96.42C61.5857 96.42 62.0804 96.5553 62.5097 96.826C62.9484 97.0967 63.2937 97.47 63.5457 97.946C63.7977 98.4127 63.9237 98.94 63.9237 99.528C63.9237 99.5747 63.9191 99.6307 63.9097 99.696C63.9097 99.7613 63.9051 99.822 63.8957 99.878H58.2957V99.5H63.5877L63.3917 99.78C63.4104 99.7333 63.4244 99.6773 63.4337 99.612C63.4524 99.5373 63.4617 99.4627 63.4617 99.388C63.4617 98.9027 63.3544 98.464 63.1397 98.072C62.9251 97.68 62.6311 97.372 62.2577 97.148C61.8937 96.924 61.4831 96.812 61.0257 96.812C60.5311 96.812 60.0877 96.938 59.6957 97.19C59.3131 97.4327 59.0097 97.778 58.7857 98.226C58.5617 98.6647 58.4497 99.1687 58.4497 99.738C58.4497 100.317 58.5571 100.835 58.7717 101.292C58.9957 101.74 59.2944 102.095 59.6677 102.356C60.0504 102.608 60.4891 102.734 60.9837 102.734C61.5157 102.734 61.9777 102.617 62.3697 102.384C62.7617 102.151 63.1257 101.782 63.4617 101.278L63.8117 101.502C63.4291 102.071 63.0091 102.487 62.5517 102.748C62.0944 103.009 61.5577 103.14 60.9417 103.14ZM69.0367 96.56H69.5407L67.2867 99.682L69.6947 103H69.1767L67.0487 100.018L64.9207 103H64.4027L66.7967 99.682L64.5427 96.56H65.0607L67.0487 99.346L69.0367 96.56ZM69.9551 96.56H72.4891V96.966H69.9551V96.56ZM71.0051 94.32H71.4391V103H71.0051V94.32ZM74.2262 102.832C74.2262 102.739 74.2589 102.659 74.3242 102.594C74.3989 102.529 74.4782 102.496 74.5622 102.496C74.6555 102.496 74.7349 102.529 74.8002 102.594C74.8655 102.65 74.8982 102.729 74.8982 102.832C74.8982 102.925 74.8655 103 74.8002 103.056C74.7349 103.121 74.6555 103.154 74.5622 103.154C74.4689 103.154 74.3895 103.121 74.3242 103.056C74.2589 103 74.2262 102.925 74.2262 102.832ZM77.4667 93.452C77.4667 93.3587 77.4947 93.284 77.5507 93.228C77.616 93.1627 77.6953 93.13 77.7887 93.13C77.882 93.13 77.9567 93.1627 78.0127 93.228C78.078 93.284 78.1107 93.3587 78.1107 93.452C78.1107 93.536 78.078 93.6107 78.0127 93.676C77.9567 93.7413 77.882 93.774 77.7887 93.774C77.6953 93.774 77.616 93.7413 77.5507 93.676C77.4947 93.6107 77.4667 93.536 77.4667 93.452ZM75.4507 105.1C75.5533 105.231 75.684 105.352 75.8427 105.464C76.0013 105.585 76.1973 105.646 76.4307 105.646C76.7387 105.646 76.9767 105.567 77.1447 105.408C77.3127 105.249 77.4293 105.044 77.4947 104.792C77.56 104.549 77.5927 104.293 77.5927 104.022V96.56H78.0267V104.064C78.0267 104.419 77.9707 104.75 77.8587 105.058C77.756 105.375 77.5833 105.623 77.3407 105.8C77.1073 105.987 76.7947 106.08 76.4027 106.08C76.2067 106.08 76.034 106.047 75.8847 105.982C75.7353 105.917 75.6047 105.833 75.4927 105.73C75.3807 105.637 75.2827 105.539 75.1987 105.436L75.4507 105.1ZM80.2131 101.278C80.2784 101.53 80.3857 101.768 80.5351 101.992C80.6937 102.216 80.9037 102.398 81.1651 102.538C81.4357 102.678 81.7624 102.748 82.1451 102.748C82.5931 102.748 82.9571 102.627 83.2371 102.384C83.5264 102.132 83.6711 101.787 83.6711 101.348C83.6711 101.059 83.5917 100.821 83.4331 100.634C83.2837 100.447 83.0831 100.293 82.8311 100.172C82.5791 100.051 82.3037 99.9433 82.0051 99.85C81.6877 99.7473 81.3891 99.6307 81.1091 99.5C80.8291 99.3693 80.6004 99.1873 80.4231 98.954C80.2551 98.7207 80.1711 98.408 80.1711 98.016C80.1711 97.6613 80.2551 97.372 80.4231 97.148C80.5911 96.9147 80.8104 96.7373 81.0811 96.616C81.3611 96.4947 81.6597 96.434 81.9771 96.434C82.3597 96.434 82.6864 96.4993 82.9571 96.63C83.2371 96.7607 83.4704 96.9287 83.6571 97.134C83.8437 97.33 83.9837 97.5493 84.0771 97.792L83.7131 98.002C83.5824 97.694 83.3771 97.4233 83.0971 97.19C82.8171 96.9473 82.4297 96.826 81.9351 96.826C81.5617 96.826 81.2444 96.924 80.9831 97.12C80.7217 97.316 80.5911 97.6053 80.5911 97.988C80.5911 98.3147 80.6657 98.5713 80.8151 98.758C80.9644 98.9447 81.1651 99.0893 81.4171 99.192C81.6691 99.2947 81.9397 99.3927 82.2291 99.486C82.5557 99.5887 82.8591 99.7193 83.1391 99.878C83.4284 100.027 83.6617 100.219 83.8391 100.452C84.0164 100.676 84.1051 100.961 84.1051 101.306C84.1051 101.857 83.9231 102.3 83.5591 102.636C83.1951 102.972 82.7191 103.14 82.1311 103.14C81.6644 103.14 81.2724 103.061 80.9551 102.902C80.6377 102.734 80.3904 102.519 80.2131 102.258C80.0357 101.997 79.9144 101.726 79.8491 101.446L80.2131 101.278Z" fill="white"/>
<defs>
<filter id="filter0_d_1039_8" x="0" y="0" width="132" height="132" filterUnits="userSpaceOnUse" color-interpolation-filters="sRGB">
<feFlood flood-opacity="0" result="BackgroundImageFix"/>
<feColorMatrix in="SourceAlpha" type="matrix" values="0 0 0 0 0 0 0 0 0 0 0 0 0 0 0 0 0 0 127 0" result="hardAlpha"/>
<feOffset dy="4"/>
<feGaussianBlur stdDeviation="2"/>
<feComposite in2="hardAlpha" operator="out"/>
<feColorMatrix type="matrix" values="0 0 0 0 0 0 0 0 0 0 0 0 0 0 0 0 0 0 0.25 0"/>
<feBlend mode="normal" in2="BackgroundImageFix" result="effect1_dropShadow_1039_8"/>
<feBlend mode="normal" in="SourceGraphic" in2="effect1_dropShadow_1039_8" result="shape"/>
</filter>
</defs>
</svg>
