<svg width="132" height="132" viewBox="0 0 132 132" fill="none" xmlns="http://www.w3.org/2000/svg">
<g filter="url(#filter0_d_1039_9)">
<rect x="4" width="124" height="124" rx="15" fill="#73A2FF" fill-opacity="0.15" shape-rendering="crispEdges"/>
</g>
<path d="M65.9745 47.1907C65.343 47.1907 64.7178 47.3151 64.1344 47.5567C63.5511 47.7984 63.021 48.1525 62.5745 48.599C62.1281 49.0455 61.7739 49.5755 61.5323 50.1589C61.2906 50.7423 61.1663 51.3675 61.1663 51.9989C61.1663 52.6303 61.2906 53.2556 61.5323 53.8389C61.7739 54.4223 62.1281 54.9523 62.5745 55.3988C63.021 55.8453 63.5511 56.1995 64.1344 56.4411C64.7178 56.6827 65.343 56.8071 65.9745 56.8071C66.6059 56.8071 67.2311 56.6827 67.8145 56.4411C68.3978 56.1995 68.9279 55.8453 69.3744 55.3988C69.8208 54.9523 70.175 54.4223 70.4166 53.8389C70.6583 53.2556 70.7826 52.6303 70.7826 51.9989C70.7826 51.3675 70.6583 50.7423 70.4166 50.1589C70.175 49.5755 69.8208 49.0455 69.3744 48.599C68.9279 48.1525 68.3978 47.7984 67.8145 47.5567C67.2311 47.3151 66.6059 47.1907 65.9745 47.1907ZM52.5052 61.5636L51.4442 61.2939C43.5362 59.2955 39 55.9035 39 51.9899C39 48.0764 43.5362 44.6843 51.4442 42.686L52.5052 42.4185L52.8042 43.4705C53.6053 46.2302 54.63 48.9201 55.868 51.5134L56.0951 51.9922L55.868 52.471C54.6279 55.0634 53.6031 57.7534 52.8042 60.5139L52.5052 61.5636ZM50.9519 45.1429C44.9411 46.8311 41.2524 49.4139 41.2524 51.9899C41.2524 54.5637 44.9411 57.1465 50.9519 58.8369C51.687 56.499 52.5746 54.2118 53.6089 51.9899C52.5734 49.7686 51.6858 47.4813 50.9519 45.1429ZM79.4437 61.5636L79.1447 60.5094C78.3444 57.7498 77.319 55.0605 76.0786 52.4687L75.8516 51.9899L76.0786 51.5111C77.3185 48.9184 78.3439 46.2284 79.1447 43.4682L79.4437 42.4162L80.5069 42.6837C88.4127 44.6821 92.9489 48.0741 92.9489 51.9899C92.9489 55.9057 88.4127 59.2955 80.5069 61.2939L79.4437 61.5636ZM78.34 51.9899C79.419 54.3255 80.3114 56.6205 80.997 58.8369C87.01 57.1465 90.6965 54.5637 90.6965 51.9899C90.6965 49.4139 87.0078 46.8333 80.997 45.1429C80.2629 47.4812 79.3753 49.7685 78.34 51.9899ZM50.9362 45.1317L50.6372 44.0819C48.4141 36.2458 49.0884 30.6307 52.4872 28.6705C55.8208 26.7463 61.173 29.0189 66.7814 34.7757L67.5457 35.5602L66.7814 36.3447C64.7886 38.4164 62.9678 40.6469 61.3371 43.0142L61.0336 43.448L60.5054 43.493C57.6369 43.7191 54.7915 44.1777 51.9972 44.8642L50.9362 45.1317ZM55.1982 30.2283C54.5957 30.2283 54.063 30.3587 53.6134 30.6172C51.379 31.9052 50.9834 36.383 52.5232 42.4252C54.9186 41.8923 57.3462 41.5161 59.7906 41.299C61.2009 39.2937 62.7418 37.3834 64.4032 35.5805C60.8965 32.1659 57.5764 30.2283 55.1982 30.2283ZM76.753 75.9994C76.7507 75.9994 76.7507 75.9994 76.753 75.9994C73.5498 75.9994 69.4362 73.5875 65.1675 69.2041L64.4032 68.4196L65.1675 67.6351C67.1598 65.5628 68.9798 63.3315 70.6096 60.9634L70.913 60.5296L71.439 60.4846C74.309 60.2597 77.1559 59.8019 79.9517 59.1157L81.0127 58.8482L81.3139 59.9002C83.5326 67.7318 82.8605 73.3492 79.4617 75.3071C78.6361 75.7739 77.7013 76.0128 76.753 75.9994ZM67.5457 68.3994C71.0524 71.8139 74.3725 73.7516 76.7508 73.7516C77.3509 73.7516 77.8882 73.6212 78.3355 73.3627C80.5699 72.0746 80.9678 67.5946 79.4257 61.5524C77.0297 62.086 74.6013 62.4622 72.1561 62.6786C70.7474 64.6853 69.2073 66.5964 67.5457 68.3994ZM81.0127 45.1317L79.9517 44.8642C77.1563 44.1757 74.3092 43.7171 71.439 43.493L70.913 43.448L70.6096 43.0142C68.9807 40.6462 67.1606 38.4156 65.1675 36.3447L64.4032 35.5602L65.1675 34.7757C70.7737 29.0212 76.1236 26.7486 79.4617 28.6705C82.8605 30.6307 83.5348 36.2458 81.3139 44.0797L81.0127 45.1317ZM72.1561 41.299C74.7232 41.5328 77.1621 41.9127 79.4257 42.4252C80.9678 36.383 80.5699 31.9052 78.3355 30.6172C76.1146 29.3336 71.9403 31.3005 67.5457 35.5805C69.2063 37.3834 70.7464 39.2938 72.1561 41.299ZM55.1982 75.9994C54.2491 76.0132 53.3135 75.7743 52.4872 75.3071C49.0884 73.3492 48.4141 67.734 50.6372 59.9002L50.9339 58.8482L51.9949 59.1157C54.5912 59.7698 57.455 60.2306 60.5031 60.4846L61.0314 60.5296L61.3326 60.9634C62.9636 63.3312 64.7843 65.5624 66.7769 67.6351L67.5412 68.4196L66.7769 69.2041C62.5105 73.5875 58.3969 75.9994 55.1982 75.9994ZM52.5232 61.5524C50.9812 67.5946 51.379 72.0746 53.6134 73.3627C55.8321 74.6282 60.0041 72.6771 64.4032 68.3994C62.7425 66.5951 61.2016 64.6841 59.7906 62.6786C57.3461 62.4624 54.9184 62.0862 52.5232 61.5524ZM65.9745 62.964C64.1245 62.964 62.2228 62.8831 60.3188 62.7258L59.7906 62.6808L59.4871 62.247C58.4102 60.6995 57.3978 59.1082 56.4525 57.477C55.51 55.8445 54.6356 54.1736 53.8315 52.4687L53.6089 51.9899L53.8315 51.5111C54.6354 49.8062 55.5099 48.1353 56.4525 46.5029C57.3831 44.8934 58.4059 43.2884 59.4871 41.7329L59.7906 41.299L60.3188 41.2541C64.0832 40.9349 67.8679 40.9349 71.6323 41.2541L72.1583 41.299L72.4596 41.7329C74.6157 44.8283 76.5083 48.0992 78.1175 51.5111L78.3445 51.9899L78.1175 52.4687C76.5121 55.8826 74.6193 59.1538 72.4596 62.247L72.1583 62.6808L71.6323 62.7258C69.7284 62.8831 67.8245 62.964 65.9745 62.964ZM61.0359 60.5273C64.3627 60.7769 67.5862 60.7769 70.9153 60.5273C72.7739 57.8102 74.424 54.9563 75.8516 51.9899C74.4266 49.0218 72.7755 46.1676 70.913 43.4525C67.6254 43.203 64.3235 43.203 61.0359 43.4525C59.1726 46.1671 57.5215 49.0213 56.0973 51.9899C57.5264 54.9559 59.1773 57.8098 61.0359 60.5273Z" fill="#A6BCE7"/>
<path d="M47.1978 98.45H47.7018L50.9218 103H50.3618L47.1978 98.45ZM45.6018 93.2H46.0638V103H45.6018V93.2ZM45.8118 93.62V93.2H47.5198C48.1545 93.2 48.7191 93.3073 49.2138 93.522C49.7085 93.7273 50.1005 94.0353 50.3898 94.446C50.6885 94.8567 50.8378 95.3653 50.8378 95.972C50.8378 96.5693 50.6885 97.078 50.3898 97.498C50.1005 97.9087 49.7085 98.2213 49.2138 98.436C48.7191 98.6413 48.1545 98.744 47.5198 98.744H45.8118V98.338H47.5198C48.0798 98.338 48.5745 98.2493 49.0038 98.072C49.4331 97.8947 49.7691 97.6333 50.0118 97.288C50.2545 96.9333 50.3758 96.4947 50.3758 95.972C50.3758 95.4493 50.2545 95.0153 50.0118 94.67C49.7691 94.3153 49.4331 94.054 49.0038 93.886C48.5745 93.7087 48.0798 93.62 47.5198 93.62H45.8118ZM54.8294 103.14C54.2694 103.14 53.7654 102.995 53.3174 102.706C52.8788 102.407 52.5334 102.006 52.2814 101.502C52.0294 100.989 51.9034 100.41 51.9034 99.766C51.9034 99.1127 52.0341 98.534 52.2954 98.03C52.5568 97.526 52.9114 97.134 53.3594 96.854C53.8168 96.5647 54.3348 96.42 54.9134 96.42C55.4734 96.42 55.9681 96.5553 56.3974 96.826C56.8361 97.0967 57.1814 97.47 57.4334 97.946C57.6854 98.4127 57.8114 98.94 57.8114 99.528C57.8114 99.5747 57.8068 99.6307 57.7974 99.696C57.7974 99.7613 57.7928 99.822 57.7834 99.878H52.1834V99.5H57.4754L57.2794 99.78C57.2981 99.7333 57.3121 99.6773 57.3214 99.612C57.3401 99.5373 57.3494 99.4627 57.3494 99.388C57.3494 98.9027 57.2421 98.464 57.0274 98.072C56.8128 97.68 56.5188 97.372 56.1454 97.148C55.7814 96.924 55.3708 96.812 54.9134 96.812C54.4188 96.812 53.9754 96.938 53.5834 97.19C53.2008 97.4327 52.8974 97.778 52.6734 98.226C52.4494 98.6647 52.3374 99.1687 52.3374 99.738C52.3374 100.317 52.4448 100.835 52.6594 101.292C52.8834 101.74 53.1821 102.095 53.5554 102.356C53.9381 102.608 54.3768 102.734 54.8714 102.734C55.4034 102.734 55.8654 102.617 56.2574 102.384C56.6494 102.151 57.0134 101.782 57.3494 101.278L57.6994 101.502C57.3168 102.071 56.8968 102.487 56.4394 102.748C55.9821 103.009 55.4454 103.14 54.8294 103.14ZM59.3495 101.096C59.3495 101.488 59.4335 101.805 59.6015 102.048C59.7788 102.291 60.0028 102.473 60.2735 102.594C60.5535 102.706 60.8475 102.762 61.1555 102.762C61.5381 102.762 61.8881 102.669 62.2055 102.482C62.5321 102.295 62.7981 102.011 63.0035 101.628C63.2088 101.245 63.3115 100.765 63.3115 100.186L63.4375 100.634C63.4375 101.194 63.3161 101.661 63.0735 102.034C62.8401 102.407 62.5415 102.687 62.1775 102.874C61.8135 103.051 61.4355 103.14 61.0435 103.14C60.6981 103.14 60.3621 103.07 60.0355 102.93C59.7088 102.781 59.4381 102.557 59.2235 102.258C59.0181 101.959 58.9155 101.581 58.9155 101.124C58.9155 100.499 59.1255 100.009 59.5455 99.654C59.9748 99.2993 60.5441 99.122 61.2535 99.122C61.6548 99.122 62.0001 99.1687 62.2895 99.262C62.5881 99.346 62.8401 99.444 63.0455 99.556C63.2508 99.668 63.3955 99.766 63.4795 99.85V100.172C63.1715 99.9387 62.8355 99.766 62.4715 99.654C62.1075 99.542 61.7201 99.486 61.3095 99.486C60.9548 99.486 60.6281 99.542 60.3295 99.654C60.0308 99.7567 59.7928 99.9293 59.6155 100.172C59.4381 100.405 59.3495 100.713 59.3495 101.096ZM59.5315 97.498L59.3215 97.176C59.5548 97.008 59.8535 96.84 60.2175 96.672C60.5815 96.504 61.0295 96.42 61.5615 96.42C62.0375 96.42 62.4341 96.4993 62.7515 96.658C63.0781 96.8167 63.3208 97.05 63.4795 97.358C63.6475 97.666 63.7315 98.0393 63.7315 98.478V103H63.3115V98.52C63.3115 98.3613 63.2928 98.1887 63.2555 98.002C63.2181 97.806 63.1388 97.6193 63.0175 97.442C62.8961 97.2553 62.7141 97.106 62.4715 96.994C62.2381 96.8727 61.9255 96.812 61.5335 96.812C61.2161 96.812 60.9315 96.8493 60.6795 96.924C60.4275 96.9987 60.2081 97.0873 60.0215 97.19C59.8348 97.2927 59.6715 97.3953 59.5315 97.498ZM65.6249 99.78C65.6249 100.349 65.7509 100.858 66.0029 101.306C66.2549 101.754 66.5955 102.104 67.0249 102.356C67.4635 102.608 67.9489 102.734 68.4809 102.734C68.8262 102.734 69.1435 102.683 69.4329 102.58C69.7315 102.477 69.9882 102.356 70.2029 102.216C70.4175 102.067 70.5715 101.922 70.6649 101.782V102.328C70.4969 102.524 70.2122 102.711 69.8109 102.888C69.4095 103.056 68.9662 103.14 68.4809 103.14C67.8555 103.14 67.2955 102.995 66.8009 102.706C66.3062 102.417 65.9142 102.02 65.6249 101.516C65.3355 101.003 65.1909 100.424 65.1909 99.78C65.1909 99.1267 65.3355 98.548 65.6249 98.044C65.9142 97.54 66.3062 97.1433 66.8009 96.854C67.2955 96.5647 67.8555 96.42 68.4809 96.42C68.9662 96.42 69.4095 96.5087 69.8109 96.686C70.2122 96.854 70.4969 97.036 70.6649 97.232V97.778C70.5715 97.638 70.4175 97.498 70.2029 97.358C69.9882 97.2087 69.7315 97.0827 69.4329 96.98C69.1435 96.8773 68.8262 96.826 68.4809 96.826C67.9489 96.826 67.4635 96.952 67.0249 97.204C66.5955 97.456 66.2549 97.806 66.0029 98.254C65.7509 98.702 65.6249 99.2107 65.6249 99.78ZM71.6358 96.56H74.1698V96.966H71.6358V96.56ZM72.6858 94.32H73.1198V103H72.6858V94.32ZM75.9069 102.832C75.9069 102.739 75.9395 102.659 76.0049 102.594C76.0795 102.529 76.1589 102.496 76.2429 102.496C76.3362 102.496 76.4155 102.529 76.4809 102.594C76.5462 102.65 76.5789 102.729 76.5789 102.832C76.5789 102.925 76.5462 103 76.4809 103.056C76.4155 103.121 76.3362 103.154 76.2429 103.154C76.1495 103.154 76.0702 103.121 76.0049 103.056C75.9395 103 75.9069 102.925 75.9069 102.832ZM79.1473 93.452C79.1473 93.3587 79.1753 93.284 79.2313 93.228C79.2967 93.1627 79.376 93.13 79.4693 93.13C79.5627 93.13 79.6373 93.1627 79.6933 93.228C79.7587 93.284 79.7913 93.3587 79.7913 93.452C79.7913 93.536 79.7587 93.6107 79.6933 93.676C79.6373 93.7413 79.5627 93.774 79.4693 93.774C79.376 93.774 79.2967 93.7413 79.2313 93.676C79.1753 93.6107 79.1473 93.536 79.1473 93.452ZM77.1313 105.1C77.234 105.231 77.3647 105.352 77.5233 105.464C77.682 105.585 77.878 105.646 78.1113 105.646C78.4193 105.646 78.6573 105.567 78.8253 105.408C78.9933 105.249 79.11 105.044 79.1753 104.792C79.2407 104.549 79.2733 104.293 79.2733 104.022V96.56H79.7073V104.064C79.7073 104.419 79.6513 104.75 79.5393 105.058C79.4367 105.375 79.264 105.623 79.0213 105.8C78.788 105.987 78.4753 106.08 78.0833 106.08C77.8873 106.08 77.7147 106.047 77.5653 105.982C77.416 105.917 77.2853 105.833 77.1733 105.73C77.0613 105.637 76.9633 105.539 76.8793 105.436L77.1313 105.1ZM81.8937 101.278C81.9591 101.53 82.0664 101.768 82.2157 101.992C82.3744 102.216 82.5844 102.398 82.8457 102.538C83.1164 102.678 83.4431 102.748 83.8257 102.748C84.2737 102.748 84.6377 102.627 84.9177 102.384C85.2071 102.132 85.3517 101.787 85.3517 101.348C85.3517 101.059 85.2724 100.821 85.1137 100.634C84.9644 100.447 84.7637 100.293 84.5117 100.172C84.2597 100.051 83.9844 99.9433 83.6857 99.85C83.3684 99.7473 83.0697 99.6307 82.7897 99.5C82.5097 99.3693 82.2811 99.1873 82.1037 98.954C81.9357 98.7207 81.8517 98.408 81.8517 98.016C81.8517 97.6613 81.9357 97.372 82.1037 97.148C82.2717 96.9147 82.4911 96.7373 82.7617 96.616C83.0417 96.4947 83.3404 96.434 83.6577 96.434C84.0404 96.434 84.3671 96.4993 84.6377 96.63C84.9177 96.7607 85.1511 96.9287 85.3377 97.134C85.5244 97.33 85.6644 97.5493 85.7577 97.792L85.3937 98.002C85.2631 97.694 85.0577 97.4233 84.7777 97.19C84.4977 96.9473 84.1104 96.826 83.6157 96.826C83.2424 96.826 82.9251 96.924 82.6637 97.12C82.4024 97.316 82.2717 97.6053 82.2717 97.988C82.2717 98.3147 82.3464 98.5713 82.4957 98.758C82.6451 98.9447 82.8457 99.0893 83.0977 99.192C83.3497 99.2947 83.6204 99.3927 83.9097 99.486C84.2364 99.5887 84.5397 99.7193 84.8197 99.878C85.1091 100.027 85.3424 100.219 85.5197 100.452C85.6971 100.676 85.7857 100.961 85.7857 101.306C85.7857 101.857 85.6037 102.3 85.2397 102.636C84.8757 102.972 84.3997 103.14 83.8117 103.14C83.3451 103.14 82.9531 103.061 82.6357 102.902C82.3184 102.734 82.0711 102.519 81.8937 102.258C81.7164 101.997 81.5951 101.726 81.5297 101.446L81.8937 101.278Z" fill="white"/>
<defs>
<filter id="filter0_d_1039_9" x="0" y="0" width="132" height="132" filterUnits="userSpaceOnUse" color-interpolation-filters="sRGB">
<feFlood flood-opacity="0" result="BackgroundImageFix"/>
<feColorMatrix in="SourceAlpha" type="matrix" values="0 0 0 0 0 0 0 0 0 0 0 0 0 0 0 0 0 0 127 0" result="hardAlpha"/>
<feOffset dy="4"/>
<feGaussianBlur stdDeviation="2"/>
<feComposite in2="hardAlpha" operator="out"/>
<feColorMatrix type="matrix" values="0 0 0 0 0 0 0 0 0 0 0 0 0 0 0 0 0 0 0.25 0"/>
<feBlend mode="normal" in2="BackgroundImageFix" result="effect1_dropShadow_1039_9"/>
<feBlend mode="normal" in="SourceGraphic" in2="effect1_dropShadow_1039_9" result="shape"/>
</filter>
</defs>
</svg>
