<svg width="132" height="132" viewBox="0 0 132 132" fill="none" xmlns="http://www.w3.org/2000/svg">
<g filter="url(#filter0_d_1039_7)">
<rect x="4" width="124" height="124" rx="15" fill="#73A2FF" fill-opacity="0.15" shape-rendering="crispEdges"/>
</g>
<path d="M85.4028 44.5447C83.1574 43.7713 81.1754 42.3808 79.6841 40.5326C78.0405 38.4733 75.9476 36.8173 73.5656 35.6911C71.1836 34.565 68.5756 33.9986 65.9411 34.0353C62.3972 33.7843 58.8887 34.8774 56.1145 37.0968C53.3402 39.3163 51.5036 42.4992 50.9706 46.0118C52.0205 44.255 53.6007 42.8765 55.4839 42.0749C57.367 41.2732 59.4559 41.0896 61.4499 41.5506C63.6916 42.3464 65.6704 43.745 67.1687 45.5926C68.8213 47.6354 70.9182 49.2743 73.2997 50.3846C75.6811 51.495 78.2845 52.0474 80.9117 52C84.4556 52.251 87.9641 51.1579 90.7383 48.9385C93.5126 46.7191 95.3492 43.5361 95.8822 40.0236C94.8513 41.8014 93.2761 43.2006 91.3892 44.0147C89.5022 44.8288 87.4035 45.0146 85.4028 44.5447ZM46.4794 59.4553C48.7248 60.2287 50.7068 61.6192 52.1981 63.4674C53.8418 65.5267 55.9346 67.1827 58.3166 68.3089C60.6986 69.435 63.3066 70.0014 65.9411 69.9647C69.485 70.2157 72.9935 69.1226 75.7678 66.9032C78.542 64.6838 80.3786 61.5008 80.9117 57.9882C79.8617 59.745 78.2815 61.1235 76.3984 61.9251C74.5153 62.7268 72.4264 62.9104 70.4323 62.4494C68.1906 61.6536 66.2118 60.255 64.7135 58.4074C63.0565 56.3697 60.9588 54.7343 58.5783 53.6245C56.1979 52.5147 53.5967 51.9592 50.9706 52C47.4266 51.749 43.9182 52.8421 41.1439 55.0615C38.3696 57.2809 36.5331 60.4639 36 63.9764C37.0309 62.1986 38.6061 60.7994 40.4931 59.9853C42.38 59.1712 44.4788 58.9854 46.4794 59.4553Z" fill="#A6BCE7"/>
<path d="M30.6706 93.634V93.2H36.3686V93.634H33.7506V103H33.2886V93.634H30.6706ZM36.1698 101.096C36.1698 101.488 36.2538 101.805 36.4218 102.048C36.5991 102.291 36.8231 102.473 37.0938 102.594C37.3738 102.706 37.6678 102.762 37.9758 102.762C38.3584 102.762 38.7084 102.669 39.0258 102.482C39.3524 102.295 39.6184 102.011 39.8238 101.628C40.0291 101.245 40.1318 100.765 40.1318 100.186L40.2578 100.634C40.2578 101.194 40.1364 101.661 39.8938 102.034C39.6604 102.407 39.3618 102.687 38.9978 102.874C38.6338 103.051 38.2558 103.14 37.8638 103.14C37.5184 103.14 37.1824 103.07 36.8558 102.93C36.5291 102.781 36.2584 102.557 36.0438 102.258C35.8384 101.959 35.7358 101.581 35.7358 101.124C35.7358 100.499 35.9458 100.009 36.3658 99.654C36.7951 99.2993 37.3644 99.122 38.0738 99.122C38.4751 99.122 38.8204 99.1687 39.1098 99.262C39.4084 99.346 39.6604 99.444 39.8658 99.556C40.0711 99.668 40.2158 99.766 40.2998 99.85V100.172C39.9918 99.9387 39.6558 99.766 39.2918 99.654C38.9278 99.542 38.5404 99.486 38.1298 99.486C37.7751 99.486 37.4484 99.542 37.1498 99.654C36.8511 99.7567 36.6131 99.9293 36.4358 100.172C36.2584 100.405 36.1698 100.713 36.1698 101.096ZM36.3518 97.498L36.1418 97.176C36.3751 97.008 36.6738 96.84 37.0378 96.672C37.4018 96.504 37.8498 96.42 38.3818 96.42C38.8578 96.42 39.2544 96.4993 39.5718 96.658C39.8984 96.8167 40.1411 97.05 40.2998 97.358C40.4678 97.666 40.5518 98.0393 40.5518 98.478V103H40.1318V98.52C40.1318 98.3613 40.1131 98.1887 40.0758 98.002C40.0384 97.806 39.9591 97.6193 39.8378 97.442C39.7164 97.2553 39.5344 97.106 39.2918 96.994C39.0584 96.8727 38.7458 96.812 38.3538 96.812C38.0364 96.812 37.7518 96.8493 37.4998 96.924C37.2478 96.9987 37.0284 97.0873 36.8418 97.19C36.6551 97.2927 36.4918 97.3953 36.3518 97.498ZM42.6412 93.452C42.6412 93.3587 42.6692 93.284 42.7252 93.228C42.7905 93.1627 42.8698 93.13 42.9632 93.13C43.0658 93.13 43.1452 93.1627 43.2012 93.228C43.2572 93.284 43.2852 93.3587 43.2852 93.452C43.2852 93.536 43.2572 93.6107 43.2012 93.676C43.1452 93.7413 43.0658 93.774 42.9632 93.774C42.8698 93.774 42.7905 93.7413 42.7252 93.676C42.6692 93.6107 42.6412 93.536 42.6412 93.452ZM42.7532 96.56H43.1872V103H42.7532V96.56ZM45.5943 92.08H46.0283V103H45.5943V92.08ZM47.3487 96.56H47.8247L49.6447 102.16L51.5767 96.266L53.6347 102.174L55.4687 96.56H55.9447L53.6627 103.294L51.5767 97.4L49.6307 103.294L47.3487 96.56ZM57.2564 93.452C57.2564 93.3587 57.2844 93.284 57.3404 93.228C57.4057 93.1627 57.4851 93.13 57.5784 93.13C57.6811 93.13 57.7604 93.1627 57.8164 93.228C57.8724 93.284 57.9004 93.3587 57.9004 93.452C57.9004 93.536 57.8724 93.6107 57.8164 93.676C57.7604 93.7413 57.6811 93.774 57.5784 93.774C57.4851 93.774 57.4057 93.7413 57.3404 93.676C57.2844 93.6107 57.2564 93.536 57.2564 93.452ZM57.3684 96.56H57.8024V103H57.3684V96.56ZM64.3395 98.688C64.3395 98.128 64.2135 97.68 63.9615 97.344C63.7189 96.9987 63.3035 96.826 62.7155 96.826C62.3235 96.826 61.9689 96.9287 61.6515 97.134C61.3342 97.3393 61.0869 97.6147 60.9095 97.96C60.7322 98.296 60.6435 98.6693 60.6435 99.08V103H60.2095V96.56H60.6435V98.156C60.7929 97.6333 61.0589 97.2133 61.4415 96.896C61.8335 96.5787 62.2862 96.42 62.7995 96.42C63.4715 96.42 63.9662 96.6253 64.2835 97.036C64.6102 97.4373 64.7735 97.974 64.7735 98.646V103H64.3395V98.688ZM72.1128 92.08H72.5328V103H72.1128V92.08ZM66.5128 99.78C66.5128 99.0893 66.6481 98.4967 66.9188 98.002C67.1895 97.498 67.5535 97.1107 68.0108 96.84C68.4775 96.56 68.9908 96.42 69.5508 96.42C70.1201 96.42 70.6101 96.574 71.0208 96.882C71.4315 97.19 71.7488 97.6007 71.9728 98.114C72.1968 98.6273 72.3088 99.1827 72.3088 99.78C72.3088 100.368 72.1968 100.923 71.9728 101.446C71.7488 101.959 71.4315 102.37 71.0208 102.678C70.6101 102.986 70.1201 103.14 69.5508 103.14C68.9908 103.14 68.4775 103.005 68.0108 102.734C67.5535 102.454 67.1895 102.062 66.9188 101.558C66.6481 101.054 66.5128 100.461 66.5128 99.78ZM66.9468 99.78C66.9468 100.387 67.0635 100.914 67.2968 101.362C67.5395 101.801 67.8615 102.141 68.2628 102.384C68.6735 102.617 69.1308 102.734 69.6348 102.734C70.0921 102.734 70.5075 102.599 70.8808 102.328C71.2541 102.048 71.5528 101.689 71.7768 101.25C72.0008 100.802 72.1128 100.312 72.1128 99.78C72.1128 99.248 72.0008 98.7627 71.7768 98.324C71.5528 97.876 71.2541 97.5167 70.8808 97.246C70.5075 96.966 70.0921 96.826 69.6348 96.826C69.1308 96.826 68.6735 96.9473 68.2628 97.19C67.8615 97.4233 67.5395 97.7593 67.2968 98.198C67.0635 98.6367 66.9468 99.164 66.9468 99.78ZM78.9673 98.1C78.9673 98.9773 79.1493 99.7613 79.5133 100.452C79.8867 101.133 80.3907 101.67 81.0253 102.062C81.66 102.454 82.3787 102.65 83.1813 102.65C83.648 102.65 84.068 102.603 84.4413 102.51C84.824 102.417 85.1693 102.277 85.4773 102.09C85.7853 101.894 86.07 101.661 86.3313 101.39V102.006C85.9207 102.37 85.4727 102.65 84.9873 102.846C84.502 103.033 83.9 103.126 83.1813 103.126C82.5 103.126 81.87 103.005 81.2913 102.762C80.722 102.51 80.2273 102.16 79.8073 101.712C79.3873 101.255 79.0607 100.723 78.8273 100.116C78.594 99.5 78.4773 98.828 78.4773 98.1C78.4773 97.372 78.594 96.7047 78.8273 96.098C79.0607 95.482 79.3873 94.95 79.8073 94.502C80.2273 94.0447 80.722 93.6947 81.2913 93.452C81.87 93.2 82.5 93.074 83.1813 93.074C83.9 93.074 84.502 93.172 84.9873 93.368C85.4727 93.5547 85.9207 93.83 86.3313 94.194V94.796C86.0793 94.5253 85.79 94.2967 85.4633 94.11C85.146 93.9233 84.796 93.7833 84.4133 93.69C84.04 93.5967 83.6293 93.55 83.1813 93.55C82.3787 93.55 81.66 93.746 81.0253 94.138C80.3907 94.5207 79.8867 95.0527 79.5133 95.734C79.1493 96.4153 78.9673 97.204 78.9673 98.1ZM88.4673 100.27C88.5793 100.69 88.738 101.087 88.9433 101.46C89.158 101.824 89.4427 102.118 89.7973 102.342C90.152 102.566 90.6 102.678 91.1413 102.678C91.8507 102.678 92.4013 102.482 92.7933 102.09C93.1853 101.689 93.3813 101.185 93.3813 100.578C93.3813 100.083 93.2693 99.6773 93.0453 99.36C92.8213 99.0427 92.5367 98.786 92.1913 98.59C91.846 98.394 91.4867 98.226 91.1133 98.086C90.8053 97.9647 90.4973 97.8293 90.1893 97.68C89.8813 97.5213 89.5967 97.3393 89.3353 97.134C89.0833 96.9193 88.8827 96.6673 88.7333 96.378C88.584 96.0887 88.5093 95.7433 88.5093 95.342C88.5093 94.8847 88.612 94.488 88.8173 94.152C89.032 93.8067 89.326 93.5407 89.6993 93.354C90.0727 93.1673 90.4973 93.074 90.9733 93.074C91.4867 93.074 91.9253 93.172 92.2893 93.368C92.6533 93.564 92.952 93.8067 93.1853 94.096C93.4187 94.3853 93.5913 94.6747 93.7033 94.964L93.2833 95.188C93.19 94.9267 93.0453 94.67 92.8493 94.418C92.6627 94.166 92.4153 93.956 92.1073 93.788C91.7993 93.62 91.4167 93.536 90.9593 93.536C90.3527 93.536 89.8673 93.6947 89.5033 94.012C89.1487 94.3293 88.9713 94.7587 88.9713 95.3C88.9713 95.72 89.074 96.0793 89.2793 96.378C89.494 96.6673 89.7833 96.9193 90.1473 97.134C90.5207 97.3487 90.9547 97.5447 91.4493 97.722C91.7293 97.834 92.0093 97.9647 92.2893 98.114C92.5787 98.2633 92.84 98.4453 93.0733 98.66C93.3067 98.8747 93.4933 99.136 93.6333 99.444C93.7827 99.752 93.8573 100.116 93.8573 100.536C93.8573 100.909 93.792 101.255 93.6613 101.572C93.5307 101.889 93.344 102.165 93.1013 102.398C92.868 102.622 92.5833 102.799 92.2473 102.93C91.9113 103.061 91.538 103.126 91.1273 103.126C90.5393 103.126 90.04 103.005 89.6293 102.762C89.2187 102.519 88.8873 102.197 88.6353 101.796C88.3833 101.395 88.2013 100.961 88.0893 100.494L88.4673 100.27ZM95.5494 100.27C95.6614 100.69 95.82 101.087 96.0254 101.46C96.24 101.824 96.5247 102.118 96.8794 102.342C97.234 102.566 97.682 102.678 98.2234 102.678C98.9327 102.678 99.4834 102.482 99.8754 102.09C100.267 101.689 100.463 101.185 100.463 100.578C100.463 100.083 100.351 99.6773 100.127 99.36C99.9034 99.0427 99.6187 98.786 99.2734 98.59C98.928 98.394 98.5687 98.226 98.1954 98.086C97.8874 97.9647 97.5794 97.8293 97.2714 97.68C96.9634 97.5213 96.6787 97.3393 96.4174 97.134C96.1654 96.9193 95.9647 96.6673 95.8154 96.378C95.666 96.0887 95.5914 95.7433 95.5914 95.342C95.5914 94.8847 95.694 94.488 95.8994 94.152C96.114 93.8067 96.408 93.5407 96.7814 93.354C97.1547 93.1673 97.5794 93.074 98.0554 93.074C98.5687 93.074 99.0074 93.172 99.3714 93.368C99.7354 93.564 100.034 93.8067 100.267 94.096C100.501 94.3853 100.673 94.6747 100.785 94.964L100.365 95.188C100.272 94.9267 100.127 94.67 99.9314 94.418C99.7447 94.166 99.4974 93.956 99.1894 93.788C98.8814 93.62 98.4987 93.536 98.0414 93.536C97.4347 93.536 96.9494 93.6947 96.5854 94.012C96.2307 94.3293 96.0534 94.7587 96.0534 95.3C96.0534 95.72 96.156 96.0793 96.3614 96.378C96.576 96.6673 96.8654 96.9193 97.2294 97.134C97.6027 97.3487 98.0367 97.5447 98.5314 97.722C98.8114 97.834 99.0914 97.9647 99.3714 98.114C99.6607 98.2633 99.922 98.4453 100.155 98.66C100.389 98.8747 100.575 99.136 100.715 99.444C100.865 99.752 100.939 100.116 100.939 100.536C100.939 100.909 100.874 101.255 100.743 101.572C100.613 101.889 100.426 102.165 100.183 102.398C99.95 102.622 99.6654 102.799 99.3294 102.93C98.9934 103.061 98.62 103.126 98.2094 103.126C97.6214 103.126 97.122 103.005 96.7114 102.762C96.3007 102.519 95.9694 102.197 95.7174 101.796C95.4654 101.395 95.2834 100.961 95.1714 100.494L95.5494 100.27Z" fill="white"/>
<defs>
<filter id="filter0_d_1039_7" x="0" y="0" width="132" height="132" filterUnits="userSpaceOnUse" color-interpolation-filters="sRGB">
<feFlood flood-opacity="0" result="BackgroundImageFix"/>
<feColorMatrix in="SourceAlpha" type="matrix" values="0 0 0 0 0 0 0 0 0 0 0 0 0 0 0 0 0 0 127 0" result="hardAlpha"/>
<feOffset dy="4"/>
<feGaussianBlur stdDeviation="2"/>
<feComposite in2="hardAlpha" operator="out"/>
<feColorMatrix type="matrix" values="0 0 0 0 0 0 0 0 0 0 0 0 0 0 0 0 0 0 0.25 0"/>
<feBlend mode="normal" in2="BackgroundImageFix" result="effect1_dropShadow_1039_7"/>
<feBlend mode="normal" in="SourceGraphic" in2="effect1_dropShadow_1039_7" result="shape"/>
</filter>
</defs>
</svg>
