<svg width="132" height="132" viewBox="0 0 132 132" fill="none" xmlns="http://www.w3.org/2000/svg">
<g filter="url(#filter0_d_1039_5)">
<rect x="4" width="124" height="124" rx="15" fill="#73A2FF" fill-opacity="0.15" shape-rendering="crispEdges"/>
</g>
<path d="M85.312 28H46.688C44.1 28 42 30.1 42 32.688V71.312C42 73.9 44.1 76 46.688 76H85.312C87.9 76 90 73.9 90 71.312V32.688C90 30.1 87.9 28 85.312 28ZM69.844 54.632H63.824V71.78H59.054V54.632H53.062V50.78H69.844V54.632ZM85.396 68.74C84.462 70.41 82.746 71.35 80.92 71.74C78.8 72.192 76.546 72.168 74.42 71.77C73.378 71.574 72.476 71.282 71.714 70.89V66.196C72.566 66.91 73.49 67.446 74.488 67.802C75.486 68.16 76.494 68.338 77.51 68.338C78.41 68.338 79.412 68.226 80.188 67.73C80.72 67.39 81.076 66.854 81.076 66.212C81.076 65.338 80.444 64.678 79.762 64.218C78.764 63.546 77.618 63.108 76.512 62.648C74.868 61.964 73.644 61.128 72.836 60.14C71.432 58.422 71.202 55.678 72.286 53.738C73.212 52.082 74.918 51.106 76.718 50.672C78.68 50.2 80.81 50.2 82.8 50.51C83.646 50.642 84.426 50.844 85.14 51.118V55.504C84.788 55.26 84.404 55.044 83.988 54.86C83.168 54.494 82.282 54.246 81.392 54.126C80.502 54.006 79.564 53.986 78.686 54.192C77.994 54.352 77.266 54.674 76.866 55.292C76.7 55.552 76.616 55.842 76.616 56.164C76.616 56.516 76.708 56.832 76.894 57.11C77.364 57.816 78.192 58.27 78.934 58.636C80.238 59.276 81.606 59.756 82.858 60.498C84.074 61.216 85.154 62.216 85.682 63.548C85.936 64.188 86.064 64.934 86.064 65.784C86.062 66.958 85.84 67.944 85.396 68.74Z" fill="#A6BCE7"/>
<path d="M37.6306 93.634V93.2H43.3286V93.634H40.7106V103H40.2486V93.634H37.6306ZM49.0564 96.56L44.8564 106.08H44.3804L45.9484 102.538L43.2464 96.56H43.7504L46.3264 102.398L46.0744 102.37L48.5804 96.56H49.0564ZM50.6624 106.08H50.2284V96.56H50.6624V106.08ZM56.2484 99.78C56.2484 100.461 56.1131 101.054 55.8424 101.558C55.5811 102.062 55.2171 102.454 54.7504 102.734C54.2931 103.005 53.7797 103.14 53.2104 103.14C52.6504 103.14 52.1651 102.986 51.7544 102.678C51.3437 102.37 51.0264 101.959 50.8024 101.446C50.5784 100.923 50.4664 100.368 50.4664 99.78C50.4664 99.1827 50.5784 98.6273 50.8024 98.114C51.0264 97.6007 51.3437 97.19 51.7544 96.882C52.1651 96.574 52.6504 96.42 53.2104 96.42C53.7797 96.42 54.2931 96.56 54.7504 96.84C55.2171 97.1107 55.5811 97.498 55.8424 98.002C56.1131 98.4967 56.2484 99.0893 56.2484 99.78ZM55.8284 99.78C55.8284 99.164 55.7071 98.6367 55.4644 98.198C55.2217 97.7593 54.8997 97.4233 54.4984 97.19C54.0971 96.9473 53.6444 96.826 53.1404 96.826C52.6924 96.826 52.2771 96.966 51.8944 97.246C51.5211 97.5167 51.2224 97.876 50.9984 98.324C50.7744 98.7627 50.6624 99.248 50.6624 99.78C50.6624 100.312 50.7744 100.802 50.9984 101.25C51.2224 101.689 51.5211 102.048 51.8944 102.328C52.2771 102.599 52.6924 102.734 53.1404 102.734C53.6444 102.734 54.0971 102.617 54.4984 102.384C54.8997 102.141 55.2217 101.801 55.4644 101.362C55.7071 100.914 55.8284 100.387 55.8284 99.78ZM60.3617 103.14C59.8017 103.14 59.2977 102.995 58.8497 102.706C58.411 102.407 58.0657 102.006 57.8137 101.502C57.5617 100.989 57.4357 100.41 57.4357 99.766C57.4357 99.1127 57.5663 98.534 57.8277 98.03C58.089 97.526 58.4437 97.134 58.8917 96.854C59.349 96.5647 59.867 96.42 60.4457 96.42C61.0057 96.42 61.5003 96.5553 61.9297 96.826C62.3683 97.0967 62.7137 97.47 62.9657 97.946C63.2177 98.4127 63.3437 98.94 63.3437 99.528C63.3437 99.5747 63.339 99.6307 63.3297 99.696C63.3297 99.7613 63.325 99.822 63.3157 99.878H57.7157V99.5H63.0077L62.8117 99.78C62.8303 99.7333 62.8443 99.6773 62.8537 99.612C62.8723 99.5373 62.8817 99.4627 62.8817 99.388C62.8817 98.9027 62.7743 98.464 62.5597 98.072C62.345 97.68 62.051 97.372 61.6777 97.148C61.3137 96.924 60.903 96.812 60.4457 96.812C59.951 96.812 59.5077 96.938 59.1157 97.19C58.733 97.4327 58.4297 97.778 58.2057 98.226C57.9817 98.6647 57.8697 99.1687 57.8697 99.738C57.8697 100.317 57.977 100.835 58.1917 101.292C58.4157 101.74 58.7143 102.095 59.0877 102.356C59.4703 102.608 59.909 102.734 60.4037 102.734C60.9357 102.734 61.3977 102.617 61.7897 102.384C62.1817 102.151 62.5457 101.782 62.8817 101.278L63.2317 101.502C62.849 102.071 62.429 102.487 61.9717 102.748C61.5143 103.009 60.9777 103.14 60.3617 103.14ZM64.9937 100.27C65.1057 100.69 65.2644 101.087 65.4697 101.46C65.6844 101.824 65.969 102.118 66.3237 102.342C66.6784 102.566 67.1264 102.678 67.6677 102.678C68.377 102.678 68.9277 102.482 69.3197 102.09C69.7117 101.689 69.9077 101.185 69.9077 100.578C69.9077 100.083 69.7957 99.6773 69.5717 99.36C69.3477 99.0427 69.063 98.786 68.7177 98.59C68.3724 98.394 68.013 98.226 67.6397 98.086C67.3317 97.9647 67.0237 97.8293 66.7157 97.68C66.4077 97.5213 66.123 97.3393 65.8617 97.134C65.6097 96.9193 65.409 96.6673 65.2597 96.378C65.1104 96.0887 65.0357 95.7433 65.0357 95.342C65.0357 94.8847 65.1384 94.488 65.3437 94.152C65.5584 93.8067 65.8524 93.5407 66.2257 93.354C66.599 93.1673 67.0237 93.074 67.4997 93.074C68.013 93.074 68.4517 93.172 68.8157 93.368C69.1797 93.564 69.4784 93.8067 69.7117 94.096C69.945 94.3853 70.1177 94.6747 70.2297 94.964L69.8097 95.188C69.7164 94.9267 69.5717 94.67 69.3757 94.418C69.189 94.166 68.9417 93.956 68.6337 93.788C68.3257 93.62 67.943 93.536 67.4857 93.536C66.879 93.536 66.3937 93.6947 66.0297 94.012C65.675 94.3293 65.4977 94.7587 65.4977 95.3C65.4977 95.72 65.6004 96.0793 65.8057 96.378C66.0204 96.6673 66.3097 96.9193 66.6737 97.134C67.047 97.3487 67.481 97.5447 67.9757 97.722C68.2557 97.834 68.5357 97.9647 68.8157 98.114C69.105 98.2633 69.3664 98.4453 69.5997 98.66C69.833 98.8747 70.0197 99.136 70.1597 99.444C70.309 99.752 70.3837 100.116 70.3837 100.536C70.3837 100.909 70.3184 101.255 70.1877 101.572C70.057 101.889 69.8704 102.165 69.6277 102.398C69.3944 102.622 69.1097 102.799 68.7737 102.93C68.4377 103.061 68.0644 103.126 67.6537 103.126C67.0657 103.126 66.5664 103.005 66.1557 102.762C65.745 102.519 65.4137 102.197 65.1617 101.796C64.9097 101.395 64.7277 100.961 64.6157 100.494L64.9937 100.27ZM71.9637 99.78C71.9637 100.349 72.0897 100.858 72.3417 101.306C72.5937 101.754 72.9344 102.104 73.3637 102.356C73.8024 102.608 74.2877 102.734 74.8197 102.734C75.1651 102.734 75.4824 102.683 75.7717 102.58C76.0704 102.477 76.3271 102.356 76.5417 102.216C76.7564 102.067 76.9104 101.922 77.0037 101.782V102.328C76.8357 102.524 76.5511 102.711 76.1497 102.888C75.7484 103.056 75.3051 103.14 74.8197 103.14C74.1944 103.14 73.6344 102.995 73.1397 102.706C72.6451 102.417 72.2531 102.02 71.9637 101.516C71.6744 101.003 71.5297 100.424 71.5297 99.78C71.5297 99.1267 71.6744 98.548 71.9637 98.044C72.2531 97.54 72.6451 97.1433 73.1397 96.854C73.6344 96.5647 74.1944 96.42 74.8197 96.42C75.3051 96.42 75.7484 96.5087 76.1497 96.686C76.5511 96.854 76.8357 97.036 77.0037 97.232V97.778C76.9104 97.638 76.7564 97.498 76.5417 97.358C76.3271 97.2087 76.0704 97.0827 75.7717 96.98C75.4824 96.8773 75.1651 96.826 74.8197 96.826C74.2877 96.826 73.8024 96.952 73.3637 97.204C72.9344 97.456 72.5937 97.806 72.3417 98.254C72.0897 98.702 71.9637 99.2107 71.9637 99.78ZM79.3886 96.56V103H78.9546V96.56H79.3886ZM81.6706 97.12C81.54 97.0267 81.4093 96.9567 81.2786 96.91C81.148 96.854 81.008 96.826 80.8586 96.826C80.5133 96.826 80.2286 96.9287 80.0046 97.134C79.79 97.3393 79.6313 97.6147 79.5286 97.96C79.4353 98.296 79.3886 98.6693 79.3886 99.08H79.1926C79.1926 98.5667 79.258 98.114 79.3886 97.722C79.5286 97.3207 79.7293 97.0033 79.9906 96.77C80.2613 96.5367 80.5786 96.42 80.9426 96.42C81.12 96.42 81.2926 96.4527 81.4606 96.518C81.6286 96.574 81.778 96.658 81.9086 96.77L81.6706 97.12ZM83.2339 93.452C83.2339 93.3587 83.2619 93.284 83.3179 93.228C83.3833 93.1627 83.4626 93.13 83.5559 93.13C83.6586 93.13 83.7379 93.1627 83.7939 93.228C83.8499 93.284 83.8779 93.3587 83.8779 93.452C83.8779 93.536 83.8499 93.6107 83.7939 93.676C83.7379 93.7413 83.6586 93.774 83.5559 93.774C83.4626 93.774 83.3833 93.7413 83.3179 93.676C83.2619 93.6107 83.2339 93.536 83.2339 93.452ZM83.3459 96.56H83.7799V103H83.3459V96.56ZM86.5511 106.08H86.1171V96.56H86.5511V106.08ZM92.1371 99.78C92.1371 100.461 92.0017 101.054 91.7311 101.558C91.4697 102.062 91.1057 102.454 90.6391 102.734C90.1817 103.005 89.6684 103.14 89.0991 103.14C88.5391 103.14 88.0537 102.986 87.6431 102.678C87.2324 102.37 86.9151 101.959 86.6911 101.446C86.4671 100.923 86.3551 100.368 86.3551 99.78C86.3551 99.1827 86.4671 98.6273 86.6911 98.114C86.9151 97.6007 87.2324 97.19 87.6431 96.882C88.0537 96.574 88.5391 96.42 89.0991 96.42C89.6684 96.42 90.1817 96.56 90.6391 96.84C91.1057 97.1107 91.4697 97.498 91.7311 98.002C92.0017 98.4967 92.1371 99.0893 92.1371 99.78ZM91.7171 99.78C91.7171 99.164 91.5957 98.6367 91.3531 98.198C91.1104 97.7593 90.7884 97.4233 90.3871 97.19C89.9857 96.9473 89.5331 96.826 89.0291 96.826C88.5811 96.826 88.1657 96.966 87.7831 97.246C87.4097 97.5167 87.1111 97.876 86.8871 98.324C86.6631 98.7627 86.5511 99.248 86.5511 99.78C86.5511 100.312 86.6631 100.802 86.8871 101.25C87.1111 101.689 87.4097 102.048 87.7831 102.328C88.1657 102.599 88.5811 102.734 89.0291 102.734C89.5331 102.734 89.9857 102.617 90.3871 102.384C90.7884 102.141 91.1104 101.801 91.3531 101.362C91.5957 100.914 91.7171 100.387 91.7171 99.78ZM92.9043 96.56H95.4383V96.966H92.9043V96.56ZM93.9543 94.32H94.3883V103H93.9543V94.32Z" fill="white"/>
<defs>
<filter id="filter0_d_1039_5" x="0" y="0" width="132" height="132" filterUnits="userSpaceOnUse" color-interpolation-filters="sRGB">
<feFlood flood-opacity="0" result="BackgroundImageFix"/>
<feColorMatrix in="SourceAlpha" type="matrix" values="0 0 0 0 0 0 0 0 0 0 0 0 0 0 0 0 0 0 127 0" result="hardAlpha"/>
<feOffset dy="4"/>
<feGaussianBlur stdDeviation="2"/>
<feComposite in2="hardAlpha" operator="out"/>
<feColorMatrix type="matrix" values="0 0 0 0 0 0 0 0 0 0 0 0 0 0 0 0 0 0 0.25 0"/>
<feBlend mode="normal" in2="BackgroundImageFix" result="effect1_dropShadow_1039_5"/>
<feBlend mode="normal" in="SourceGraphic" in2="effect1_dropShadow_1039_5" result="shape"/>
</filter>
</defs>
</svg>
