<svg width="162" height="42" viewBox="0 0 162 42" fill="none" xmlns="http://www.w3.org/2000/svg">
<path d="M38.1125 16.6875C35.8125 16.975 33.6562 15.9688 32.3625 13.8125C31.2125 11.8 31.3562 9.2125 32.7937 7.4875C30.6375 5.475 28.05 4.0375 25.3187 3.175C24.4562 5.1875 22.4437 6.625 20 6.625C17.5562 6.625 15.5437 5.1875 14.6812 3.03125C11.8062 3.89375 9.2187 5.33125 7.2062 7.34375C8.49995 9.2125 8.78745 11.8 7.4937 13.8125C6.3437 15.825 4.0437 16.975 1.7437 16.6875C1.4562 18.125 1.1687 19.5625 1.1687 21C1.1687 22.4375 1.31245 24.0188 1.7437 25.3125C4.0437 25.025 6.19995 26.0312 7.4937 28.1875C8.6437 30.2 8.49995 32.7875 7.06245 34.5125C9.2187 36.525 11.8062 37.9625 14.5375 38.825C15.4 36.8125 17.4125 35.2312 19.8562 35.2312C22.3 35.2312 24.3125 36.6687 25.175 38.825C28.05 37.9625 30.6375 36.525 32.65 34.5125C31.3562 32.7875 31.0687 30.2 32.2187 28.1875C33.3687 26.175 35.6687 25.025 37.9687 25.3125C38.2562 23.875 38.5437 22.4375 38.5437 21C38.6875 19.5625 38.5437 17.9812 38.1125 16.6875Z" stroke="#73A2FF" stroke-width="2" stroke-miterlimit="10" stroke-linecap="round" stroke-linejoin="round"/>
<path d="M15.729 18.664L16.065 19.266L12.341 21.338L16.065 23.452L15.729 24.054L11.683 21.702V20.974L15.729 18.664ZM21.0235 14.772L21.6815 14.898L18.9795 27.386L18.3215 27.26L21.0235 14.772ZM24.2685 18.664L28.3145 20.974V21.702L24.2685 24.054L23.9325 23.452L27.6565 21.338L23.9325 19.266L24.2685 18.664Z" fill="white"/>
<path d="M64.339 31.182V28.426C64.4603 28.4433 64.5513 28.452 64.612 28.452C65.002 28.452 65.3053 28.3307 65.522 28.088C65.7386 27.8367 65.847 27.4813 65.847 27.022V11.89H68.655V27.464C68.655 28.2873 68.5033 28.9763 68.2 29.531C67.9053 30.0857 67.472 30.5017 66.9 30.779C66.328 31.0563 65.6346 31.195 64.82 31.195C64.742 31.195 64.664 31.195 64.586 31.195C64.508 31.195 64.4256 31.1907 64.339 31.182ZM74.9967 31.208C74.2081 31.208 73.5321 31.026 72.9687 30.662C72.4141 30.298 71.9894 29.804 71.6947 29.18C71.4001 28.556 71.2527 27.854 71.2527 27.074V11.89H74.0607V27.074C74.0607 27.4467 74.1344 27.776 74.2817 28.062C74.4291 28.3393 74.6674 28.478 74.9967 28.478C75.3434 28.478 75.5861 28.3393 75.7247 28.062C75.8634 27.776 75.9327 27.4467 75.9327 27.074V11.89H78.7407V27.074C78.7407 27.854 78.5891 28.556 78.2857 29.18C77.9911 29.804 77.5621 30.298 76.9987 30.662C76.4441 31.026 75.7767 31.208 74.9967 31.208ZM84.725 31.208C83.9537 31.208 83.3123 31.0823 82.801 30.831C82.2897 30.571 81.8867 30.1983 81.592 29.713C81.2973 29.2277 81.085 28.6427 80.955 27.958C80.8337 27.2733 80.773 26.502 80.773 25.644L83.529 25.384C83.529 25.8 83.542 26.203 83.568 26.593C83.6027 26.9743 83.659 27.321 83.737 27.633C83.8237 27.9363 83.945 28.179 84.101 28.361C84.2657 28.543 84.4737 28.634 84.725 28.634C85.141 28.634 85.4357 28.4433 85.609 28.062C85.7823 27.672 85.869 27.204 85.869 26.658C85.869 26.112 85.726 25.5443 85.44 24.955C85.154 24.3657 84.8117 23.8067 84.413 23.278C83.737 22.3767 83.1433 21.5403 82.632 20.769C82.1293 19.9977 81.735 19.2393 81.449 18.494C81.1717 17.7487 81.033 16.9687 81.033 16.154C81.033 15.5127 81.1153 14.9233 81.28 14.386C81.4447 13.84 81.683 13.3677 81.995 12.969C82.3157 12.5617 82.7013 12.2453 83.152 12.02C83.6027 11.7947 84.1183 11.682 84.699 11.682C85.4183 11.682 86.025 11.8033 86.519 12.046C87.0217 12.2887 87.4247 12.6353 87.728 13.086C88.04 13.5367 88.2653 14.074 88.404 14.698C88.5513 15.3133 88.625 15.998 88.625 16.752L85.869 17.012C85.869 16.6913 85.8517 16.3707 85.817 16.05C85.791 15.7207 85.739 15.4217 85.661 15.153C85.583 14.8843 85.4703 14.6677 85.323 14.503C85.1757 14.3383 84.985 14.256 84.751 14.256C84.387 14.256 84.1357 14.412 83.997 14.724C83.8583 15.0273 83.789 15.4607 83.789 16.024C83.789 16.752 83.984 17.454 84.374 18.13C84.764 18.806 85.2883 19.5947 85.947 20.496C86.7357 21.562 87.377 22.5413 87.871 23.434C88.3737 24.3267 88.625 25.3147 88.625 26.398C88.625 27.0827 88.5513 27.7197 88.404 28.309C88.2567 28.8897 88.0227 29.3967 87.702 29.83C87.39 30.2633 86.987 30.6013 86.493 30.844C86.0077 31.0867 85.4183 31.208 84.725 31.208ZM92.5222 31V14.776H89.8702V11.89H97.9822V14.776H95.3302V31H92.5222ZM99.699 25.228V22.758H103.469V25.228H99.699ZM109.34 31.208C108.568 31.208 107.927 31.0823 107.416 30.831C106.904 30.571 106.501 30.1983 106.207 29.713C105.912 29.2277 105.7 28.6427 105.57 27.958C105.448 27.2733 105.388 26.502 105.388 25.644L108.144 25.384C108.144 25.8 108.157 26.203 108.183 26.593C108.217 26.9743 108.274 27.321 108.352 27.633C108.438 27.9363 108.56 28.179 108.716 28.361C108.88 28.543 109.088 28.634 109.34 28.634C109.756 28.634 110.05 28.4433 110.224 28.062C110.397 27.672 110.484 27.204 110.484 26.658C110.484 26.112 110.341 25.5443 110.055 24.955C109.769 24.3657 109.426 23.8067 109.028 23.278C108.352 22.3767 107.758 21.5403 107.247 20.769C106.744 19.9977 106.35 19.2393 106.064 18.494C105.786 17.7487 105.648 16.9687 105.648 16.154C105.648 15.5127 105.73 14.9233 105.895 14.386C106.059 13.84 106.298 13.3677 106.61 12.969C106.93 12.5617 107.316 12.2453 107.767 12.02C108.217 11.7947 108.733 11.682 109.314 11.682C110.033 11.682 110.64 11.8033 111.134 12.046C111.636 12.2887 112.039 12.6353 112.343 13.086C112.655 13.5367 112.88 14.074 113.019 14.698C113.166 15.3133 113.24 15.998 113.24 16.752L110.484 17.012C110.484 16.6913 110.466 16.3707 110.432 16.05C110.406 15.7207 110.354 15.4217 110.276 15.153C110.198 14.8843 110.085 14.6677 109.938 14.503C109.79 14.3383 109.6 14.256 109.366 14.256C109.002 14.256 108.75 14.412 108.612 14.724C108.473 15.0273 108.404 15.4607 108.404 16.024C108.404 16.752 108.599 17.454 108.989 18.13C109.379 18.806 109.903 19.5947 110.562 20.496C111.35 21.562 111.992 22.5413 112.486 23.434C112.988 24.3267 113.24 25.3147 113.24 26.398C113.24 27.0827 113.166 27.7197 113.019 28.309C112.871 28.8897 112.637 29.3967 112.317 29.83C112.005 30.2633 111.602 30.6013 111.108 30.844C110.622 31.0867 110.033 31.208 109.34 31.208ZM115.265 31V11.89H118.073V31H115.265ZM122.557 31V14.776H119.905V11.89H128.017V14.776H125.365V31H122.557ZM129.838 31V11.89H136.26V14.776H132.646V19.924H135.246V22.732H132.646V28.114H136.26V31H129.838ZM138.5 31V28.114H141.23V31H138.5ZM143.472 31V11.89H146.28C147.961 11.89 149.2 12.358 149.998 13.294C150.795 14.2213 151.194 15.5907 151.194 17.402C151.194 18.4767 151.003 19.4083 150.622 20.197C150.249 20.977 149.794 21.549 149.257 21.913L151.168 31H148.36L146.774 22.94H146.28V31H143.472ZM146.28 20.34C146.8 20.34 147.211 20.2273 147.515 20.002C147.818 19.768 148.035 19.4387 148.165 19.014C148.295 18.5893 148.36 18.0867 148.36 17.506C148.36 16.596 148.208 15.8983 147.905 15.413C147.61 14.919 147.068 14.672 146.28 14.672V20.34ZM157.029 31.208C156.24 31.208 155.564 31.026 155.001 30.662C154.446 30.298 154.021 29.804 153.727 29.18C153.432 28.556 153.285 27.854 153.285 27.074V11.89H156.093V27.074C156.093 27.4467 156.166 27.776 156.314 28.062C156.461 28.3393 156.699 28.478 157.029 28.478C157.375 28.478 157.618 28.3393 157.757 28.062C157.895 27.776 157.965 27.4467 157.965 27.074V11.89H160.773V27.074C160.773 27.854 160.621 28.556 160.318 29.18C160.023 29.804 159.594 30.298 159.031 30.662C158.476 31.026 157.809 31.208 157.029 31.208Z" fill="white"/>
<line x1="52.5" y1="2.18557e-08" x2="52.5" y2="42" stroke="#CBCBCB" stroke-opacity="0.3"/>
</svg>
