<svg width="60" height="60" viewBox="0 0 60 60" fill="none" xmlns="http://www.w3.org/2000/svg">
<path d="M18 22.5C18 21.6703 18.7661 21 19.7143 21H40.2857C41.2339 21 42 21.6703 42 22.5C42 23.3297 41.2339 24 40.2857 24H19.7143C18.7661 24 18 23.3297 18 22.5ZM18 30C18 29.1703 18.7661 28.5 19.7143 28.5H40.2857C41.2339 28.5 42 29.1703 42 30C42 30.8297 41.2339 31.5 40.2857 31.5H19.7143C18.7661 31.5 18 30.8297 18 30ZM42 37.5C42 38.3297 41.2339 39 40.2857 39H19.7143C18.7661 39 18 38.3297 18 37.5C18 36.6703 18.7661 36 19.7143 36H40.2857C41.2339 36 42 36.6703 42 37.5Z" fill="white"/>
<circle cx="30" cy="30" r="30" fill="#D9D9D9" fill-opacity="0.1"/>
</svg>
