<svg width="52" height="52" viewBox="0 0 52 52" fill="none" xmlns="http://www.w3.org/2000/svg">
<path d="M26 52C20.8577 52 15.8309 50.4751 11.5552 47.6182C7.27951 44.7613 3.94702 40.7007 1.97914 35.9498C0.0112654 31.1989 -0.503621 25.9712 0.499594 20.9277C1.50281 15.8842 3.97907 11.2514 7.61524 7.61524C11.2514 3.97907 15.8842 1.50281 20.9277 0.499594C25.9712 -0.503621 31.1989 0.0112654 35.9498 1.97914C40.7007 3.94702 44.7613 7.27951 47.6182 11.5552C50.4751 15.8309 52 20.8577 52 26C52 32.8956 49.2607 39.5088 44.3848 44.3848C39.5088 49.2607 32.8956 52 26 52ZM26 4.00001C21.6488 4.00001 17.3953 5.29029 13.7775 7.70768C10.1596 10.1251 7.33979 13.561 5.67466 17.581C4.00953 21.601 3.57386 26.0244 4.42274 30.292C5.27161 34.5596 7.36691 38.4796 10.4437 41.5564C13.5204 44.6331 17.4404 46.7284 21.708 47.5773C25.9756 48.4262 30.3991 47.9905 34.419 46.3254C38.439 44.6602 41.875 41.8404 44.2923 38.2226C46.7097 34.6047 48 30.3512 48 26C48 20.1652 45.6822 14.5695 41.5564 10.4437C37.4306 6.31786 31.8348 4.00001 26 4.00001Z" fill="#47A100"/>
<path d="M23 37.6C22.7371 37.5976 22.4772 37.5434 22.2352 37.4404C21.9933 37.3375 21.774 37.1878 21.59 37L12.39 27.81C12.0636 27.4263 11.8941 26.9335 11.9153 26.4302C11.9366 25.9269 12.1469 25.4501 12.5044 25.0952C12.8619 24.7402 13.3401 24.5333 13.8436 24.5156C14.347 24.498 14.8386 24.671 15.22 25L24.41 34.19C24.688 34.4697 24.8771 34.8253 24.9536 35.2122C25.0301 35.599 24.9905 35.9999 24.8398 36.3643C24.6891 36.7287 24.4341 37.0404 24.1067 37.2603C23.7794 37.4802 23.3943 37.5984 23 37.6Z" fill="#47A100"/>
<path d="M22.9999 37.5999C22.6035 37.6002 22.2159 37.4828 21.8864 37.2624C21.5569 37.042 21.3004 36.7287 21.1493 36.3622C20.9982 35.9958 20.9594 35.5927 21.0379 35.2041C21.1163 34.8156 21.3084 34.4591 21.5899 34.1799L36.7799 18.9999C37.1552 18.6247 37.6642 18.4138 38.1949 18.4138C38.7256 18.4138 39.2346 18.6247 39.6099 18.9999C39.9852 19.3752 40.196 19.8842 40.196 20.4149C40.196 20.9457 39.9852 21.4546 39.6099 21.8299L24.4099 36.9999C24.2258 37.1877 24.0066 37.3374 23.7646 37.4403C23.5227 37.5433 23.2628 37.5975 22.9999 37.5999Z" fill="#47A100"/>
</svg>
