<svg width="20" height="18" viewBox="0 0 20 18" fill="none" xmlns="http://www.w3.org/2000/svg">
<path d="M19.2001 13.5L12.6 1.69995C12.1 0.699951 11.1 0.199951 10 0.199951C8.90005 0.199951 7.90005 0.699951 7.40005 1.69995L0.800049 13.5C0.300049 14.4 0.300049 15.6 0.800049 16.5C1.30005 17.4 2.30005 18 3.40005 18H16.6C17.7 18 18.6001 17.4 19.2001 16.5C19.8001 15.6 19.7001 14.5 19.2001 13.5ZM17.5 15.5C17.4 15.6 17.2 16 16.6 16H3.40005C2.90005 16 2.60005 15.7 2.50005 15.5C2.40005 15.3 2.20005 15 2.50005 14.5L9.10005 2.59995C9.40005 2.09995 9.80005 2.09995 10 2.09995C10.2 2.09995 10.6 2.09995 10.9 2.59995L17.5 14.5C17.7 15 17.5 15.4 17.5 15.5Z" fill="#FF8A00"/>
<path d="M10 6C9.4 6 9 6.4 9 7V10C9 10.6 9.4 11 10 11C10.6 11 11 10.6 11 10V7C11 6.4 10.6 6 10 6Z" fill="#FF8A00"/>
<path d="M10 14C10.5523 14 11 13.5523 11 13C11 12.4477 10.5523 12 10 12C9.44772 12 9 12.4477 9 13C9 13.5523 9.44772 14 10 14Z" fill="#FF8A00"/>
</svg>
